<?xml version="1.0" encoding="iso-8859-1"?>
<!-- Generator: Adobe Illustrator 16.0.0, SVG Export Plug-In . SVG Version: 6.00 Build 0)  -->
<!DOCTYPE svg PUBLIC "-//W3C//DTD SVG 1.1//EN" "http://www.w3.org/Graphics/SVG/1.1/DTD/svg11.dtd">
<svg xmlns="http://www.w3.org/2000/svg" xmlns:xlink="http://www.w3.org/1999/xlink" version="1.1" id="Capa_1" x="0px" y="0px" width="512px" height="512px" viewBox="0 0 329.508 329.508" style="enable-background:new 0 0 329.508 329.508;" xml:space="preserve">
<g>
	<g>
		<path d="M48.43,3.771C21.723,3.771,0,25.5,0,52.206c0,26.707,21.723,48.433,48.43,48.433s48.434-21.726,48.434-48.433    C96.863,25.499,75.137,3.771,48.43,3.771z M48.43,77.292c-13.832,0-25.087-11.253-25.087-25.088    c0-13.836,11.255-25.089,25.087-25.089c13.833,0,25.088,11.253,25.088,25.089C73.518,66.04,62.263,77.292,48.43,77.292z" fill="#a3a3a3"/>
		<path d="M164.754,3.771c-26.707,0-48.434,21.728-48.434,48.434c0,26.707,21.727,48.433,48.434,48.433s48.43-21.726,48.43-48.433    S191.461,3.771,164.754,3.771z M164.754,77.292c-13.832,0-25.091-11.253-25.091-25.088c0-13.836,11.259-25.089,25.091-25.089    c13.834,0,25.088,11.253,25.088,25.089C189.842,66.04,178.588,77.292,164.754,77.292z" fill="#a3a3a3"/>
		<path d="M281.074,100.637c26.707,0,48.434-21.726,48.434-48.433c0-26.706-21.727-48.434-48.434-48.434    s-48.431,21.728-48.431,48.434C232.645,78.912,254.367,100.637,281.074,100.637z M281.074,27.115    c13.832,0,25.091,11.253,25.091,25.089c0,13.835-11.259,25.088-25.091,25.088s-25.087-11.253-25.087-25.088    C255.987,38.369,267.242,27.115,281.074,27.115z" fill="#a3a3a3"/>
		<path d="M48.43,116.321C21.723,116.321,0,138.046,0,164.753c0,26.707,21.723,48.434,48.43,48.434s48.434-21.728,48.434-48.434    C96.864,138.046,75.137,116.321,48.43,116.321z M48.43,189.843c-13.832,0-25.087-11.254-25.087-25.089    c0-13.835,11.255-25.087,25.087-25.087c13.833,0,25.088,11.252,25.088,25.087C73.518,178.589,62.263,189.843,48.43,189.843z" fill="#a3a3a3"/>
		<path d="M164.754,116.321c-26.707,0-48.434,21.725-48.434,48.432c0,26.707,21.727,48.434,48.434,48.434s48.43-21.728,48.43-48.434    C213.184,138.046,191.461,116.321,164.754,116.321z M164.754,189.843c-13.832,0-25.091-11.254-25.091-25.089    c0-13.835,11.259-25.087,25.091-25.087c13.834,0,25.088,11.252,25.088,25.087C189.842,178.589,178.588,189.843,164.754,189.843z" fill="#a3a3a3"/>
		<path d="M281.074,116.321c-26.707,0-48.431,21.725-48.431,48.432c0,26.707,21.724,48.434,48.431,48.434    s48.434-21.728,48.434-48.434C329.508,138.046,307.781,116.321,281.074,116.321z M281.074,189.843    c-13.832,0-25.087-11.254-25.087-25.089c0-13.835,11.255-25.087,25.087-25.087s25.091,11.252,25.091,25.087    C306.165,178.589,294.906,189.843,281.074,189.843z" fill="#a3a3a3"/>
		<path d="M48.43,228.872C21.723,228.872,0,250.597,0,277.304s21.723,48.434,48.43,48.434s48.434-21.727,48.434-48.434    S75.137,228.872,48.43,228.872z M48.43,302.392c-13.832,0-25.087-11.254-25.087-25.088s11.255-25.09,25.087-25.09    c13.833,0,25.088,11.256,25.088,25.09S62.263,302.392,48.43,302.392z" fill="#a3a3a3"/>
		<path d="M164.754,228.872c-26.707,0-48.434,21.725-48.434,48.432s21.727,48.434,48.434,48.434s48.43-21.727,48.43-48.434    S191.461,228.872,164.754,228.872z M164.754,302.392c-13.832,0-25.091-11.254-25.091-25.088s11.259-25.09,25.091-25.09    c13.834,0,25.088,11.256,25.088,25.09S178.588,302.392,164.754,302.392z" fill="#a3a3a3"/>
		<path d="M281.074,228.872c-26.707,0-48.431,21.725-48.431,48.432s21.724,48.434,48.431,48.434s48.434-21.727,48.434-48.434    S307.781,228.872,281.074,228.872z M281.074,302.392c-13.832,0-25.087-11.254-25.087-25.088s11.255-25.09,25.087-25.09    s25.091,11.256,25.091,25.09S294.906,302.392,281.074,302.392z" fill="#a3a3a3"/>
	</g>
</g>
<g>
</g>
<g>
</g>
<g>
</g>
<g>
</g>
<g>
</g>
<g>
</g>
<g>
</g>
<g>
</g>
<g>
</g>
<g>
</g>
<g>
</g>
<g>
</g>
<g>
</g>
<g>
</g>
<g>
</g>
</svg>
