<?xml version="1.0" encoding="UTF-8" standalone="no"?>
<!-- Generator: Adobe Illustrator 19.2.0, SVG Export Plug-In . SVG Version: 6.00 Build 0)  -->

<svg
   xmlns:dc="http://purl.org/dc/elements/1.1/"
   xmlns:cc="http://creativecommons.org/ns#"
   xmlns:rdf="http://www.w3.org/1999/02/22-rdf-syntax-ns#"
   xmlns:svg="http://www.w3.org/2000/svg"
   xmlns="http://www.w3.org/2000/svg"
   xmlns:sodipodi="http://sodipodi.sourceforge.net/DTD/sodipodi-0.dtd"
   xmlns:inkscape="http://www.inkscape.org/namespaces/inkscape"
   version="1.1"
   id="Capa_1"
   x="0px"
   y="0px"
   viewBox="0 0 512 512"
   style="enable-background:new 0 0 512 512;"
   xml:space="preserve"
   inkscape:version="0.91 r13725"
   sodipodi:docname="icon-star-full-white.svg"><metadata
     id="metadata13"><rdf:RDF><cc:Work
         rdf:about=""><dc:format>image/svg+xml</dc:format><dc:type
           rdf:resource="http://purl.org/dc/dcmitype/StillImage" /><dc:title></dc:title></cc:Work></rdf:RDF></metadata><defs
     id="defs11" /><sodipodi:namedview
     pagecolor="#ffffff"
     bordercolor="#666666"
     borderopacity="1"
     objecttolerance="10"
     gridtolerance="10"
     guidetolerance="10"
     inkscape:pageopacity="0"
     inkscape:pageshadow="2"
     inkscape:window-width="1362"
     inkscape:window-height="688"
     id="namedview9"
     showgrid="false"
     inkscape:zoom="0.4609375"
     inkscape:cx="256"
     inkscape:cy="256"
     inkscape:window-x="0"
     inkscape:window-y="23"
     inkscape:window-maximized="0"
     inkscape:current-layer="Capa_1" /><style
     type="text/css"
     id="style3">
	.st0{fill:#A3A3A3;}
</style><g
     id="g5"
     style="fill:#ffffff;fill-opacity:0.94117647"><path
       class="st0"
       d="M511.4,197.4c-1.8-5.5-6.9-9.1-12.6-9.1H322.9L268.6,21c-1.8-5.5-6.9-9.1-12.6-9.1c-5.7,0-10.8,3.7-12.6,9.1   l-54.3,167.2H13.2c-5.7,0-10.8,3.7-12.6,9.1c-1.8,5.5,0.2,11.4,4.8,14.8l142.3,103.4L93.4,482.8c-1.8,5.5,0.2,11.4,4.8,14.8   c4.6,3.4,10.9,3.4,15.6,0L256,394.2l142.3,103.4c2.3,1.7,5.1,2.5,7.8,2.5c2.7,0,5.5-0.8,7.8-2.5c4.6-3.4,6.6-9.3,4.8-14.8   l-54.3-167.2l142.2-103.4C511.2,208.8,513.1,202.9,511.4,197.4z"
       id="path7"
       style="fill:#ffffff;fill-opacity:0.94117647" /></g></svg>