<?xml version="1.0" encoding="iso-8859-1"?>
<!-- Generator: Adobe Illustrator 18.0.0, SVG Export Plug-In . SVG Version: 6.00 Build 0)  -->
<!DOCTYPE svg PUBLIC "-//W3C//DTD SVG 1.1//EN" "http://www.w3.org/Graphics/SVG/1.1/DTD/svg11.dtd">
<svg xmlns="http://www.w3.org/2000/svg" xmlns:xlink="http://www.w3.org/1999/xlink" version="1.1" id="Capa_1" x="0px" y="0px" viewBox="0 0 299.32 299.32" style="enable-background:new 0 0 299.32 299.32;" xml:space="preserve" width="512px" height="512px">
<g>
	<path d="M290.32,78.031h-18.116l-12.892-41.52c-2.743-8.836-10.803-14.773-20.056-14.773H59.635   c-9.331,0-17.411,6.002-20.106,14.937l-12.47,41.355H9c-4.971,0-9,4.029-9,9v134.956c0,4.971,4.029,9,9,9h22.568l-6.672,35.952   c-0.488,2.629,0.219,5.34,1.929,7.396c1.71,2.056,4.245,3.246,6.92,3.246h231.83c2.675,0,5.21-1.189,6.92-3.246   c1.71-2.057,2.417-4.767,1.929-7.396l-6.672-35.952h22.568c4.971,0,9-4.029,9-9V87.031C299.32,82.061,295.291,78.031,290.32,78.031   z M56.762,41.873c0.386-1.276,1.54-2.134,2.873-2.134h179.622c1.321,0,2.473,0.848,2.865,2.11l11.235,36.182H45.859L56.762,41.873z    M254.751,259.582H44.569l13.381-72.106h183.42L254.751,259.582z M281.32,212.987h-16.909l-6.709-36.154   c-0.791-4.265-4.512-7.358-8.849-7.358H50.467c-4.337,0-8.058,3.093-8.849,7.358l-6.709,36.154H18V96.031h15.762   c0.038,0,0.076,0,0.114,0h231.635c0.02,0,0.04,0.002,0.061,0.002c0.011,0,0.022-0.002,0.032-0.002h15.716V212.987z" fill="#a3a3a3"/>
	<path d="M261.726,111.55h-27.26c-4.971,0-9,4.029-9,9s4.029,9,9,9h27.26c4.971,0,9-4.029,9-9S266.696,111.55,261.726,111.55z" fill="#a3a3a3"/>
	<path d="M215.536,227.779H83.784c-4.971,0-9,4.029-9,9s4.029,9,9,9h131.752c4.971,0,9-4.029,9-9S220.507,227.779,215.536,227.779z" fill="#a3a3a3"/>
</g>
<g>
</g>
<g>
</g>
<g>
</g>
<g>
</g>
<g>
</g>
<g>
</g>
<g>
</g>
<g>
</g>
<g>
</g>
<g>
</g>
<g>
</g>
<g>
</g>
<g>
</g>
<g>
</g>
<g>
</g>
</svg>
