<?xml version="1.0" encoding="utf-8"?>
<!-- Generator: Adobe Illustrator 16.0.0, SVG Export Plug-In . SVG Version: 6.00 Build 0)  -->
<!DOCTYPE svg PUBLIC "-//W3C//DTD SVG 1.1//EN" "http://www.w3.org/Graphics/SVG/1.1/DTD/svg11.dtd">
<svg version="1.1"
	 id="svg142" xmlns:svg="http://www.w3.org/2000/svg" xmlns:dc="http://purl.org/dc/elements/1.1/" xmlns:cc="http://creativecommons.org/ns#" xmlns:rdf="http://www.w3.org/1999/02/22-rdf-syntax-ns#" xmlns:inkscape="http://www.inkscape.org/namespaces/inkscape" xmlns:sodipodi="http://sodipodi.sourceforge.net/DTD/sodipodi-0.dtd" sodipodi:docname="icon-support-grey-green.svg" inkscape:version="0.91 r13725"
	 xmlns="http://www.w3.org/2000/svg" xmlns:xlink="http://www.w3.org/1999/xlink" x="0px" y="0px" width="300px" height="300px"
	 viewBox="0 0 300 300" enable-background="new 0 0 300 300" xml:space="preserve">
<sodipodi:namedview  guidetolerance="10" bordercolor="#666666" borderopacity="1" inkscape:cx="368.98371" inkscape:cy="452.78051" pagecolor="#ffffff" inkscape:zoom="0.73646837" gridtolerance="10" showgrid="false" objecttolerance="10" id="namedview146" inkscape:window-y="65" inkscape:pageshadow="2" inkscape:current-layer="svg142" inkscape:pageopacity="0" inkscape:window-x="20" inkscape:window-maximized="0" inkscape:window-height="781" inkscape:window-width="1553">
	</sodipodi:namedview>
<path id="path144" fill="#A3A3A3" d="M295.598,145.597h-5.064c-1.1-35.906-15.592-69.504-41.107-95.021
	c-25.516-25.517-59.113-40.01-95.021-41.107V4.403C154.402,1.972,152.432,0,150,0c-2.432,0-4.403,1.972-4.403,4.403v5.065
	C109.69,10.566,76.093,25.06,50.576,50.576c-25.517,25.516-40.01,59.114-41.108,95.021H4.403C1.971,145.597,0,147.568,0,150
	c0,2.432,1.971,4.402,4.403,4.402h5.065c1.098,35.906,15.591,69.505,41.108,95.021c25.517,25.519,59.114,40.011,95.021,41.107v5.063
	c0,2.434,1.972,4.403,4.403,4.403c2.432,0,4.402-1.972,4.402-4.403v-5.063c35.906-1.099,69.505-15.593,95.021-41.107
	c25.519-25.516,40.011-59.112,41.107-95.021h5.063c2.432,0,4.403-1.971,4.403-4.402
	C299.999,147.569,298.027,145.597,295.598,145.597L295.598,145.597z M255.723,71.262l-37.637,37.636
	c-6.68-11.024-15.96-20.305-26.984-26.984l37.639-37.637c5.066,3.792,9.9,7.969,14.459,12.525
	C247.754,61.36,251.932,66.193,255.723,71.262L255.723,71.262z M213.417,181.326c-0.233,0.337-0.413,0.699-0.542,1.074
	c-6.747,13.041-17.434,23.728-30.475,30.476c-0.377,0.129-0.74,0.31-1.078,0.543c-9.447,4.685-20.082,7.325-31.322,7.325
	c-11.242,0-21.876-2.641-31.324-7.326c-0.337-0.234-0.699-0.414-1.076-0.543c-13.042-6.747-23.728-17.434-30.475-30.475
	c-0.128-0.377-0.309-0.738-0.542-1.076c-4.686-9.447-7.326-20.082-7.326-31.324c0-11.24,2.64-21.874,7.325-31.321
	c0.234-0.338,0.415-0.702,0.543-1.079c6.748-13.042,17.434-23.728,30.476-30.475c0.376-0.128,0.738-0.308,1.075-0.542
	c9.449-4.686,20.083-7.326,31.325-7.326c11.24,0,21.875,2.64,31.322,7.325c0.338,0.234,0.7,0.415,1.077,0.543
	c13.041,6.748,23.729,17.434,30.476,30.475c0.129,0.377,0.31,0.74,0.543,1.077c4.687,9.448,7.326,20.083,7.326,31.323
	C220.744,161.242,218.104,171.878,213.417,181.326L213.417,181.326z M150,281.801c-25.716,0-50.303-7.324-71.394-20.97
	l38.437-38.437c10.046,4.592,21.208,7.153,32.958,7.153s22.91-2.563,32.957-7.153l38.437,38.438
	C200.303,274.477,175.716,281.801,150,281.801z M150,18.2c25.715,0,50.303,7.323,71.395,20.969l-38.438,38.437
	C172.91,73.013,161.75,70.45,150,70.45s-22.911,2.563-32.958,7.155L78.606,39.169C99.697,25.523,124.284,18.2,150,18.2z
	 M56.803,56.803c4.556-4.556,9.39-8.733,14.458-12.525l37.636,37.637c-11.023,6.68-20.304,15.961-26.983,26.985L44.277,71.264
	C48.069,66.194,52.247,61.36,56.803,56.803z M39.168,78.607l38.437,38.437C73.013,127.09,70.45,138.251,70.45,150
	c0,11.75,2.563,22.911,7.155,32.957l-38.437,38.438C25.523,200.303,18.2,175.716,18.2,150C18.2,124.285,25.522,99.698,39.168,78.607
	z M44.278,228.739l37.636-37.638c6.68,11.022,15.959,20.303,26.983,26.982L71.261,255.72c-5.068-3.792-9.901-7.969-14.458-12.522
	C52.247,238.641,48.07,233.809,44.278,228.739L44.278,228.739z M243.197,243.197c-4.557,4.556-9.391,8.732-14.459,12.525
	l-37.637-37.639c11.022-6.68,20.304-15.959,26.982-26.98l37.637,37.637C251.93,233.809,247.753,238.641,243.197,243.197z
	 M260.83,221.396l-38.436-38.438c4.592-10.047,7.153-21.209,7.153-32.959s-2.563-22.91-7.153-32.957l38.438-38.437
	c13.645,21.091,20.969,45.678,20.969,71.394C281.801,175.717,274.477,200.305,260.83,221.396z"/>
<path id="path4133" sodipodi:nodetypes="sscccscccsssccsccccsccssscccsccccscccssscccsccccsccccsccsccsccscccscccsssccc" inkscape:connector-curvature="0" fill="#FFB72F" d="
	M149.91-0.079c-2.432,0-4.403,1.971-4.403,4.403V9.39c-26.488,0.81-51.574,8.987-73.231,23.423l6.434,6.301
	c21.087-13.638,45.492-20.993,71.2-20.993c25.676,0,50.402,7.442,71.473,21.047c6.518-6.282,0,0,6.518-6.282
	C206.193,18.36,180.889,10.202,154.313,9.39V4.324C154.313,1.893,152.342-0.079,149.91-0.079z M149.91,70.371
	c-11.64,0-22.701,2.518-32.675,7.03l6.762,6.696c8.029-3.173,16.771-4.92,25.913-4.92c9.627,0,18.805,1.941,27.177,5.439
	l0.072-0.264l6.637-6.032l-1.976-1.257C172.047,72.766,161.255,70.371,149.91,70.371z M32.507,72.698
	c-14.251,21.558-22.325,46.514-23.129,72.82H4.313c-2.432,0-4.403,1.972-4.403,4.403c0,2.433,1.972,4.403,4.403,4.403h5.064
	c0.811,26.515,8.935,51.766,23.399,73.438l6.349-6.412c-13.631-21.084-21.016-45.727-21.016-71.428
	c0-25.588,7.499-50.268,21.015-71.289L32.507,72.698z M267.578,72.886l-6.788,5.71c13.385,20.95,20.921,45.865,20.921,71.326
	c0,25.506-7.418,50.428-20.852,71.404l6.646,5.933c14.153-21.504,22.136-46.725,22.937-72.934h5.065
	c2.431,0,4.402-1.972,4.402-4.403c0-2.431-1.972-4.403-4.402-4.403h-5.065C289.641,119.332,281.708,94.377,267.578,72.886z
	 M77.516,116.964c-4.592,10.047-7.155,21.208-7.155,32.957c0,11.401,2.419,22.245,6.757,32.058l0.4-0.414l7.898-2.43l0.067-0.021
	c-4.052-8.904-6.317-18.787-6.317-29.192c0-9.486,1.886-18.537,5.289-26.81L77.516,116.964z M222.318,116.995l-6.76,6.587
	c3.279,8.146,5.096,17.033,5.096,26.339c0,10.906-2.49,21.238-6.918,30.472l8.566,2.487c4.594-10.048,7.155-21.21,7.155-32.959
	C229.46,138.184,226.902,127.034,222.318,116.995z M176.777,215.354c-8.289,3.416-17.359,5.313-26.867,5.313
	c-9.373,0-18.322-1.841-26.515-5.167l-6.443,6.816c10.047,4.594,21.209,7.154,32.958,7.154c11.75,0,22.91-2.563,32.957-7.154
	L176.777,215.354z M221.266,260.777c-21.082,13.63-45.654,20.942-71.354,20.942c-25.594,0-50.281-7.29-71.305-20.813l-6.08,6.446
	c21.57,14.274,46.653,22.293,72.982,23.099v5.063c0,2.433,1.971,4.403,4.403,4.403c2.432,0,4.402-1.973,4.402-4.403v-5.063
	c26.432-0.81,51.781-8.849,73.408-23.228L221.266,260.777z"/>
</svg>
