<?xml version="1.0" encoding="utf-8"?>
<!-- Generator: Adobe Illustrator 16.0.0, SVG Export Plug-In . SVG Version: 6.00 Build 0)  -->
<!DOCTYPE svg PUBLIC "-//W3C//DTD SVG 1.1//EN" "http://www.w3.org/Graphics/SVG/1.1/DTD/svg11.dtd">
<svg version="1.1" id="Livello_1" xmlns="http://www.w3.org/2000/svg" xmlns:xlink="http://www.w3.org/1999/xlink" x="0px" y="0px"
	 width="512px" height="512px" viewBox="0 0 512 512" enable-background="new 0 0 512 512" xml:space="preserve">
<path fill="#FFFFFF" d="M432.431,105.506c-2.934-2.934-4.401-6.601-4.401-10.269c0-3.667,1.468-7.335,4.401-10.268
	c5.867-5.869,15.401-5.869,20.537,0c2.934,2.933,4.399,6.601,4.399,10.268c0,3.668-1.466,7.335-4.399,10.269s-6.601,4.4-10.269,4.4
	S435.364,108.439,432.431,105.506z M259.332,315.276H83.299c-8.068,0-14.67,6.604-14.67,14.67c0,8.069,6.602,14.67,14.67,14.67
	h176.033c8.066,0,14.67-6.601,14.67-14.67C274.002,321.88,267.398,315.276,259.332,315.276z M229.993,373.956H83.299
	c-8.068,0-14.67,6.599-14.67,14.67c0,8.066,6.602,14.668,14.67,14.668h146.694c8.068,0,14.669-6.602,14.669-14.668
	C244.662,380.555,238.061,373.956,229.993,373.956z M68.629,271.271v-66.014c0-8.067,6.602-14.668,14.67-14.668h66.012
	c8.068,0,14.669,6.601,14.669,14.668v66.014c0,8.066-6.601,14.667-14.669,14.667H83.299
	C75.231,285.938,68.629,279.338,68.629,271.271z M97.968,256.6h36.674v-36.673H97.968V256.6z M426.562,345.351
	c5.869,5.867,5.869,14.667,0,20.537c-2.934,2.933-6.602,4.401-10.269,4.401c-3.668,0-7.335-1.469-10.269-4.401l-32.271-32.273
	l-18.337,18.337c-2.934,2.934-6.602,4.399-10.269,4.399c-1.468,0-2.2,0-3.668-0.731c-5.135-1.469-8.803-5.136-10.269-10.269
	l-21.271-78.483c-1.468-5.133,0-10.268,3.667-13.935c3.668-3.667,8.804-5.134,13.937-3.667l78.48,21.27
	c5.136,1.468,8.803,5.135,10.269,10.271c1.468,5.133,0,10.267-3.668,13.934l-18.335,18.338L426.562,345.351z M374.485,292.54
	l-29.338-8.067l8.066,29.338L374.485,292.54z M508.709,75.434v361.6c0,21.271-17.601,38.874-38.872,38.874H41.491
	c-21.271,0-38.873-17.604-38.873-38.874v-361.6c0-21.27,17.603-38.874,38.873-38.874h427.612
	C491.108,36.56,508.709,54.164,508.709,75.434z M31.957,75.434v49.143h447.415V75.434c0-5.134-4.401-9.535-9.535-9.535H41.491
	C36.357,65.899,31.957,70.299,31.957,75.434z M479.372,437.767V153.915H31.957v283.852c0,5.136,4.4,9.535,9.534,9.535h427.612
	C474.971,447.302,479.372,442.902,479.372,437.767z"/>
</svg>
