<?xml version="1.0" encoding="utf-8"?>
<!-- Generator: Adobe Illustrator 16.0.0, SVG Export Plug-In . SVG Version: 6.00 Build 0)  -->
<!DOCTYPE svg PUBLIC "-//W3C//DTD SVG 1.1//EN" "http://www.w3.org/Graphics/SVG/1.1/DTD/svg11.dtd">
<svg version="1.1" id="Livello_1" xmlns="http://www.w3.org/2000/svg" xmlns:xlink="http://www.w3.org/1999/xlink" x="0px" y="0px"
	 width="512px" height="512px" viewBox="0 0 512 512" enable-background="new 0 0 512 512" xml:space="preserve">
<g transform="translate(0,-952.36218)">
	<g>
		<path fill="#A3A3A3" stroke="#A3A2A2" stroke-width="0.25" stroke-miterlimit="10" d="M180.921,989.346
			c-47.706,0-86.633,38.917-86.633,86.633c0,47.706,38.927,86.623,86.633,86.623c47.707,0,86.643-38.917,86.643-86.623
			C267.563,1028.263,228.627,989.346,180.921,989.346z M377.291,1000.892c-38.153,0-69.303,31.168-69.303,69.313
			c0,38.134,31.149,69.303,69.303,69.303c38.135,0,69.303-31.168,69.303-69.303C446.594,1032.061,415.426,1000.892,377.291,1000.892
			z M180.921,1012.45c35.233,0,63.529,28.305,63.529,63.529s-28.296,63.529-63.529,63.529c-35.224,0-63.528-28.306-63.528-63.529
			S145.697,1012.45,180.921,1012.45z M377.291,1023.997c25.652,0,46.208,20.556,46.208,46.208c0,25.652-20.556,46.198-46.208,46.198
			s-46.208-20.546-46.208-46.198C331.083,1044.553,351.639,1023.997,377.291,1023.997z M377.291,1156.828
			c-49.262,0-92.55,14.22-116.045,40.435c-24.221-7.357-51.39-11.547-80.325-11.547c-48.221,0-91.862,11.223-124.347,30.328
			c-32.485,19.086-54.692,47.066-54.692,79.398v103.964c0.058,5.134,3.512,9.639,8.484,11.013
			c48.995,13.704,104.679,16.644,158.827,17.865c0.058,0,0.124,0,0.182,0h23.095c0.066,0,0.124,0,0.19,0
			c54.139-1.222,109.833-4.161,158.827-17.865c4.963-1.374,8.417-5.879,8.475-11.013v-57.927c1.852,0.057,3.74,0.133,5.592,0.172
			c0.076,0,0.115,0,0.191,0h23.094c0.058,0,0.115,0,0.191,0c40.195-0.936,77.872-7.769,112.8-17.693
			c4.963-1.451,8.341-6.013,8.284-11.185v-75.086c0-25.137-17.14-45.931-41.303-59.559
			C444.628,1164.511,412.582,1156.828,377.291,1156.828z M377.291,1179.932c31.894,0,60.484,7.157,80.144,18.227
			c19.659,11.08,29.584,24.851,29.584,39.528v65.695c-30.996,8.283-63.405,14.353-98.181,15.174h-0.172h-22.731
			c-0.076,0-0.134,0-0.19,0c-1.985-0.058-3.855-0.134-5.783-0.172v-22.942c0-32.332-22.197-60.313-54.683-79.398
			c-6.222-3.665-12.884-6.891-19.85-9.944C304.515,1191.079,338.26,1179.932,377.291,1179.932z M180.921,1208.81
			c44.558,0,84.563,10.593,112.619,27.083c28.058,16.49,43.308,37.867,43.308,59.549v94.573
			c-43.537,10.86-93.953,14.028-144.379,15.174h-0.182h-22.741c-0.058,0-0.114,0-0.172,0
			c-50.417-1.146-100.833-4.313-144.397-15.174v-94.573c0-21.682,15.259-43.059,43.316-59.549
			C96.359,1219.403,136.354,1208.81,180.921,1208.81z"/>
	</g>
</g>
</svg>
