<?xml version="1.0" encoding="utf-8"?>
<!-- Generator: Adobe Illustrator 16.0.0, SVG Export Plug-In . SVG Version: 6.00 Build 0)  -->
<!DOCTYPE svg PUBLIC "-//W3C//DTD SVG 1.1//EN" "http://www.w3.org/Graphics/SVG/1.1/DTD/svg11.dtd">
<svg version="1.1" id="Livello_1" xmlns="http://www.w3.org/2000/svg" xmlns:xlink="http://www.w3.org/1999/xlink" x="0px" y="0px"
	 width="512px" height="512px" viewBox="0 0 512 512" enable-background="new 0 0 512 512" xml:space="preserve">
<path fill="#FFFFFF" d="M424.637,502.947c-2.637,3.956-6.59,5.933-11.205,5.933H99.007c-4.614,0-8.569-1.977-11.206-5.933
	c-2.637-3.953-2.637-8.568-0.659-12.524l102.83-228.074v-43.503h-6.591c-7.25,0-13.184-5.934-13.184-13.184
	s5.933-13.184,13.184-13.184h19.775c7.251,0,13.184,5.934,13.184,13.184v59.326c0,1.977-0.66,3.953-1.319,5.272l-95.579,212.254
	h273.556L296.759,270.26c-0.659-1.319-1.318-3.296-1.318-5.272v-59.326c0-7.25,5.932-13.184,13.184-13.184h19.773
	c7.252,0,13.185,5.934,13.185,13.184s-5.933,13.184-13.185,13.184h-6.592v43.503l103.491,228.074
	C427.275,494.379,426.615,498.994,424.637,502.947z M298.736,322.994c-13.844,0-23.729,3.296-32.301,6.592
	c-7.249,2.636-12.523,4.613-20.433,4.613c-19.116,0-36.254-3.954-36.254-3.954c-7.251-1.319-13.843,2.637-15.82,9.888
	c-1.318,7.25,2.636,13.842,9.888,15.818c0.659,0,20.434,4.615,42.187,4.615c12.524,0,21.095-3.296,29.004-5.932
	c7.251-2.637,13.843-4.613,23.729-4.613c7.251,0,13.184-5.935,13.184-13.185C311.92,329.586,305.987,322.994,298.736,322.994z
	 M209.089,417.914c-2.636,2.638-3.955,5.934-3.955,9.229s1.318,6.593,3.955,9.227c2.636,2.639,5.932,3.956,9.229,3.956
	c3.296,0,6.592-1.317,9.228-3.956c2.638-2.634,3.956-5.931,3.956-9.227s-1.318-6.592-3.956-9.229
	C222.931,412.641,213.703,412.641,209.089,417.914z M289.508,384.956c-2.637,2.636-3.954,5.932-3.954,9.229
	c0,3.296,1.317,6.592,3.954,9.228c2.638,2.637,5.933,3.956,9.229,3.956s6.592-1.319,9.228-3.956
	c2.639-2.636,3.956-5.932,3.956-9.228c0-3.297-1.317-6.593-3.956-9.229C303.35,380.343,294.78,380.343,289.508,384.956z
	 M249.958,112.059c0-20.434,16.478-36.914,36.913-36.914s36.913,16.48,36.913,36.914c0,20.434-16.478,36.914-36.913,36.914
	C266.436,149.632,249.958,133.153,249.958,112.059z M269.731,112.059c0,9.888,7.911,17.138,17.14,17.138
	c9.888,0,17.14-7.91,17.14-17.138c0-9.229-7.911-17.138-17.14-17.138S269.731,102.831,269.731,112.059z M172.175,40.869
	c0-20.434,16.479-36.914,36.914-36.914s36.914,16.48,36.914,36.914c0,20.434-16.479,36.914-36.914,36.914
	C188.654,78.441,172.175,61.303,172.175,40.869z M191.95,40.869c0,9.888,7.91,17.138,17.139,17.138
	c9.888,0,17.139-7.91,17.139-17.138c0-9.229-7.91-17.138-17.139-17.138S191.95,31.64,191.95,40.869z"/>
</svg>
