<?xml version="1.0" encoding="utf-8"?>
<!-- Generator: Adobe Illustrator 16.0.0, SVG Export Plug-In . SVG Version: 6.00 Build 0)  -->
<!DOCTYPE svg PUBLIC "-//W3C//DTD SVG 1.1//EN" "http://www.w3.org/Graphics/SVG/1.1/DTD/svg11.dtd">
<svg version="1.1" id="Capa_1" xmlns="http://www.w3.org/2000/svg" xmlns:xlink="http://www.w3.org/1999/xlink" x="0px" y="0px"
	 width="512px" height="512px" viewBox="0 0 512 512" enable-background="new 0 0 512 512" xml:space="preserve">
<g>
	<g>
		<path fill="#A3A3A3" d="M255.808,509.262c139.951,0,253.239-113.712,253.239-253.229c0-139.96-113.713-253.229-253.239-253.229
			C116.281,2.805,2.579,116.073,2.579,256.033C2.579,395.55,115.848,509.262,255.808,509.262z M255.808,38.224
			c120.279,0,217.809,97.54,217.809,217.81c0,120.25-97.53,217.8-217.809,217.8c-120.269,0-217.81-97.955-217.81-217.8
			C37.999,135.764,135.539,38.224,255.808,38.224z"/>
		<path fill="#A3A3A3" d="M244.005,285.772h84.406c10.067,0,17.937-7.868,17.937-17.937c0-10.066-7.869-17.926-17.937-17.926
			h-66.479V145.822c0-10.058-7.879-17.946-17.927-17.946c-10.067,0-17.946,7.888-17.946,17.946v122.014
			C226.059,277.904,233.938,285.772,244.005,285.772L244.005,285.772z"/>
	</g>
</g>
</svg>
