<?xml version="1.0" encoding="iso-8859-1"?>
<!-- Generator: Adobe Illustrator 19.1.0, SVG Export Plug-In . SVG Version: 6.00 Build 0)  -->
<svg xmlns="http://www.w3.org/2000/svg" xmlns:xlink="http://www.w3.org/1999/xlink" version="1.1" id="Capa_1" x="0px" y="0px" viewBox="0 0 62.981 62.981" style="enable-background:new 0 0 62.981 62.981;" xml:space="preserve" width="512px" height="512px">
<g>
	<g id="group-83svg">
		<path id="path-1_131_" d="M55.063,62.98c-0.303,0-0.604-0.091-0.861-0.272L31.063,46.471L7.924,62.708    c-0.457,0.322-0.843,0.362-1.34,0.104C6.088,62.553,5.99,62.04,5.99,61.48V5.691C5.99,2.553,8.115,0,11.251,0h40    c3.078,0,5.739,2.393,5.739,5.691V61.48c0,0.56-0.525,1.073-1.021,1.332C55.751,62.925,55.299,62.98,55.063,62.98z M31.063,43.139    c0.302,0,0.817,0.09,1.075,0.272L53.99,58.596V5.691C53.99,4.352,52.848,3,51.251,3h-40C9.744,3,8.99,4.183,8.99,5.691v52.905    l21.425-15.185C30.673,43.229,30.761,43.139,31.063,43.139z" fill="#a3a3a3"/>
		<path id="path-2_130_" d="M53.563,12h-46c-0.828,0-1.5-0.672-1.5-1.5S6.735,9,7.563,9h46c0.828,0,1.5,0.672,1.5,1.5    S54.391,12,53.563,12z" fill="#a3a3a3"/>
		<path id="path-3_121_" d="M19.61,42.251c-0.394,0-0.777-0.155-1.061-0.439c-0.346-0.347-0.501-0.842-0.416-1.325l1.088-6.09    c0.054-0.301,0.2-0.58,0.416-0.796L34.619,18.62c0.951-0.951,2.216-1.474,3.561-1.474s2.61,0.523,3.561,1.474    c1.964,1.964,1.964,5.158,0,7.122L26.759,40.724c-0.216,0.216-0.495,0.362-0.796,0.416l-6.089,1.088    C19.786,42.243,19.698,42.251,19.61,42.251z M22.091,35.389l-0.625,3.506l3.505-0.626L39.62,23.621    c0.385-0.385,0.596-0.896,0.596-1.44s-0.211-1.055-0.596-1.44c-0.77-0.769-2.111-0.767-2.88,0L22.091,35.389z" fill="#a3a3a3"/>
	</g>
</g>
<g>
</g>
<g>
</g>
<g>
</g>
<g>
</g>
<g>
</g>
<g>
</g>
<g>
</g>
<g>
</g>
<g>
</g>
<g>
</g>
<g>
</g>
<g>
</g>
<g>
</g>
<g>
</g>
<g>
</g>
</svg>
