<?xml version="1.0" encoding="iso-8859-1"?>
<!-- Generator: Adobe Illustrator 16.0.0, SVG Export Plug-In . SVG Version: 6.00 Build 0)  -->
<!DOCTYPE svg PUBLIC "-//W3C//DTD SVG 1.1//EN" "http://www.w3.org/Graphics/SVG/1.1/DTD/svg11.dtd">
<svg xmlns="http://www.w3.org/2000/svg" xmlns:xlink="http://www.w3.org/1999/xlink" version="1.1" id="Capa_1" x="0px" y="0px" width="512px" height="512px" viewBox="0 0 469.181 469.181" style="enable-background:new 0 0 469.181 469.181;" xml:space="preserve">
<g>
	<g>
		<path d="M369.446,48.43h-40.096V13.485C329.351,6.042,323.312,0,315.864,0s-13.486,6.042-13.486,13.485V48.43H163.032V13.485    C163.032,6.042,156.995,0,149.548,0c-7.449,0-13.486,6.042-13.486,13.485V48.43h-36.33c-33.461,0-60.685,27.215-60.685,60.683    v299.376c0,33.469,27.224,60.691,60.685,60.691h269.715c33.459,0,60.687-27.224,60.687-60.691V109.112    C430.133,75.645,402.905,48.43,369.446,48.43z M99.732,75.397h36.33v16.756c0,7.443,6.037,13.484,13.486,13.484    c7.448,0,13.484-6.041,13.484-13.484V75.397h139.346v16.756c0,7.443,6.039,13.484,13.486,13.484s13.486-6.041,13.486-13.484    V75.397h40.096c18.588,0,33.711,15.127,33.711,33.716v33.61H66.019v-33.61C66.019,90.524,81.143,75.397,99.732,75.397z     M369.446,442.207H99.732c-18.588,0-33.713-15.121-33.713-33.719V169.69h337.139v238.799    C403.157,427.086,388.034,442.207,369.446,442.207z" fill="#FFFFFF"/>
		<path d="M165.053,206.674h-55.24c-7.445,0-13.482,6.032-13.482,13.482v55.232c0,7.449,6.037,13.481,13.482,13.481h55.24    c7.452,0,13.486-6.032,13.486-13.481v-55.232C178.539,212.706,172.505,206.674,165.053,206.674z M151.57,261.904h-28.272V233.64    h28.272V261.904z" fill="#FFFFFF"/>
		<path d="M262.205,207.622h-55.239c-7.45,0-13.482,6.034-13.482,13.484v55.233c0,7.449,6.032,13.481,13.482,13.481h55.239    c7.447,0,13.483-6.032,13.483-13.481v-55.233C275.689,213.656,269.652,207.622,262.205,207.622z M248.723,262.855H220.45v-28.265    h28.272L248.723,262.855L248.723,262.855z" fill="#FFFFFF"/>
		<path d="M358.407,207.622H303.17c-7.447,0-13.484,6.034-13.484,13.484v55.233c0,7.449,6.037,13.481,13.484,13.481h55.237    c7.451,0,13.488-6.032,13.488-13.481v-55.233C371.896,213.656,365.859,207.622,358.407,207.622z M344.925,262.855h-28.272v-28.265    h28.272V262.855z" fill="#FFFFFF"/>
		<path d="M165.053,309.761h-55.24c-7.445,0-13.482,6.042-13.482,13.483v55.247c0,7.449,6.037,13.481,13.482,13.481h55.24    c7.452,0,13.486-6.032,13.486-13.481v-55.247C178.539,315.803,172.505,309.761,165.053,309.761z M151.57,365.007h-28.272v-28.271    h28.272V365.007z" fill="#FFFFFF"/>
		<path d="M261.254,309.761h-55.236c-7.443,0-13.485,6.042-13.485,13.483v55.247c0,7.449,6.042,13.481,13.485,13.481h55.236    c7.453,0,13.489-6.032,13.489-13.481v-55.247C274.743,315.803,268.707,309.761,261.254,309.761z M247.772,365.007h-28.269v-28.271    h28.269V365.007z" fill="#FFFFFF"/>
		<path d="M357.461,309.761h-55.242c-7.441,0-13.484,6.042-13.484,13.483v55.247c0,7.449,6.042,13.481,13.484,13.481h55.242    c7.447,0,13.489-6.032,13.489-13.481v-55.247C370.95,315.803,364.908,309.761,357.461,309.761z M343.975,365.007h-28.269v-28.271    h28.269V365.007z" fill="#FFFFFF"/>
	</g>
</g>
<g>
</g>
<g>
</g>
<g>
</g>
<g>
</g>
<g>
</g>
<g>
</g>
<g>
</g>
<g>
</g>
<g>
</g>
<g>
</g>
<g>
</g>
<g>
</g>
<g>
</g>
<g>
</g>
<g>
</g>
</svg>
