<?xml version="1.0" encoding="utf-8"?>
<!-- Generator: Adobe Illustrator 16.0.0, SVG Export Plug-In . SVG Version: 6.00 Build 0)  -->
<!DOCTYPE svg PUBLIC "-//W3C//DTD SVG 1.1//EN" "http://www.w3.org/Graphics/SVG/1.1/DTD/svg11.dtd">
<svg version="1.1" id="Capa_1" xmlns="http://www.w3.org/2000/svg" xmlns:xlink="http://www.w3.org/1999/xlink" x="0px" y="0px"
	 width="512px" height="512px" viewBox="0 0 512 512" enable-background="new 0 0 512 512" xml:space="preserve">
<path fill="#D73D32" d="M256,0C114.609,0,0,114.609,0,256c0,141.391,114.609,256,256,256c141.391,0,256-114.609,256-256
	C512,114.609,397.391,0,256,0z M256,472c-119.297,0-216-96.703-216-216S136.703,40,256,40s216,96.703,216,216S375.297,472,256,472z"
	/>
<g>
	<g>
		<g>
			<path fill="#D73D32" d="M333.951,243.346H228.462v35.163h64.359c-9.601,30.57-38.154,52.744-71.894,52.744
				c-41.615,0-75.349-33.734-75.349-75.347c0-41.615,33.734-75.349,75.349-75.349c20.957,0,39.909,8.556,53.568,22.364
				l25.522-27.743c-20.383-19.976-48.296-32.296-79.091-32.296c-62.421,0-113.023,50.602-113.023,113.023
				c0,62.419,50.602,113.023,113.023,113.023c54.679,0,102.55-38.831,113.023-90.418V243.346L333.951,243.346L333.951,243.346z"/>
			<polygon fill="#D73D32" points="402.45,243.287 380.874,243.287 380.874,221.709 362.378,221.709 362.378,243.287 
				340.801,243.287 340.801,261.781 362.378,261.781 362.378,283.358 380.874,283.358 380.874,261.781 402.45,261.781 			"/>
		</g>
	</g>
</g>
</svg>
