<?xml version="1.0" encoding="utf-8"?>
<!-- Generator: Adobe Illustrator 16.0.0, SVG Export Plug-In . SVG Version: 6.00 Build 0)  -->
<!DOCTYPE svg PUBLIC "-//W3C//DTD SVG 1.1//EN" "http://www.w3.org/Graphics/SVG/1.1/DTD/svg11.dtd">
<svg version="1.1" id="Livello_1" xmlns="http://www.w3.org/2000/svg" xmlns:xlink="http://www.w3.org/1999/xlink" x="0px" y="0px"
	 width="512px" height="512px" viewBox="0 0 512 512" enable-background="new 0 0 512 512" xml:space="preserve">
<g>
	<g>
		<path fill="#FFFFFF" d="M386.35,406.959H103.923c-55.618,0-100.402-46.228-100.402-101.848
			c0-55.618,44.784-100.402,100.402-100.402c4.334,0,7.946,0,12.28,0.723c1.444-54.175,46.228-98.236,100.403-98.236
			c45.505,0,83.789,29.615,96.067,70.788c21.668-17.336,47.673-26.727,73.676-26.727c70.065,0,127.129,57.064,127.129,127.129
			C513.479,348.45,457.139,406.959,386.35,406.959z M103.923,233.602c-39.728,0-71.509,32.503-71.509,71.509
			c0,39.007,31.781,72.953,71.509,72.953h283.15c54.173,0,98.233-44.781,98.233-98.957c0-54.173-44.061-98.234-98.233-98.234
			c-34.672,0-58.509,20.225-72.956,36.838c-3.612,4.334-10.11,6.502-15.888,4.334c-5.78-2.167-9.392-7.224-9.392-13.724
			c0-39.728-32.505-71.51-71.51-71.51c-39.005,0-71.51,32.505-71.51,71.51c0,4.333,0.723,8.667,1.446,13.724
			c0.722,5.056-0.723,10.112-5.057,13.724c-3.611,3.612-9.39,4.334-14.446,2.89C119.815,235.047,111.869,233.602,103.923,233.602z"
			/>
	</g>
	<g>
		<path fill="#FFFFFF" d="M186.268,341.227c-3.61,0-7.222-1.443-10.112-4.332c-2.889-2.892-4.333-6.503-4.333-10.114
			c0-3.612,1.444-7.224,4.333-10.111c5.058-5.057,15.169-5.057,20.226,0c2.89,2.888,4.334,6.499,4.334,10.111
			c0,3.611-1.444,7.223-4.334,10.114C193.491,339.783,189.879,341.227,186.268,341.227z"/>
	</g>
	<g>
		<path fill="#FFFFFF" d="M252.721,341.227c-3.611,0-7.223-1.443-10.113-4.332c-2.889-2.892-4.333-6.503-4.333-10.114
			c0-3.612,1.444-7.224,4.333-10.111c5.057-5.057,15.169-5.057,20.224,0c2.892,2.888,4.337,6.499,4.337,10.111
			c0,3.611-1.445,7.223-4.337,10.114C259.945,339.783,256.333,341.227,252.721,341.227z"/>
	</g>
	<g>
		<path fill="#FFFFFF" d="M319.174,341.227c-3.611,0-7.223-1.443-10.111-4.332c-2.89-2.892-4.335-6.503-4.335-10.114
			c0-3.612,1.445-7.224,4.335-10.111c5.055-5.057,15.169-5.057,20.225,0c2.889,2.888,4.334,6.499,4.334,10.111
			c0,3.611-1.445,7.223-4.334,10.114C326.398,339.783,322.786,341.227,319.174,341.227z"/>
	</g>
</g>
</svg>
