<?xml version="1.0" encoding="UTF-8" standalone="no"?>
<svg
   xmlns:dc="http://purl.org/dc/elements/1.1/"
   xmlns:cc="http://creativecommons.org/ns#"
   xmlns:rdf="http://www.w3.org/1999/02/22-rdf-syntax-ns#"
   xmlns:svg="http://www.w3.org/2000/svg"
   xmlns="http://www.w3.org/2000/svg"
   xmlns:sodipodi="http://sodipodi.sourceforge.net/DTD/sodipodi-0.dtd"
   xmlns:inkscape="http://www.inkscape.org/namespaces/inkscape"
   width="512px"
   version="1.1"
   height="512px"
   viewBox="0 0 64 64"
   enable-background="new 0 0 64 64"
   id="svg2"
   inkscape:version="0.91 r13725"
   sodipodi:docname="icon-cart-grey.svg">
  <metadata
     id="metadata12">
    <rdf:RDF>
      <cc:Work
         rdf:about="">
        <dc:format>image/svg+xml</dc:format>
        <dc:type
           rdf:resource="http://purl.org/dc/dcmitype/StillImage" />
        <dc:title></dc:title>
      </cc:Work>
    </rdf:RDF>
  </metadata>
  <defs
     id="defs10" />
  <sodipodi:namedview
     pagecolor="#ffffff"
     bordercolor="#666666"
     borderopacity="1"
     objecttolerance="10"
     gridtolerance="10"
     guidetolerance="10"
     inkscape:pageopacity="0"
     inkscape:pageshadow="2"
     inkscape:window-width="832"
     inkscape:window-height="480"
     id="namedview8"
     showgrid="false"
     inkscape:zoom="0.4609375"
     inkscape:cx="256"
     inkscape:cy="256"
     inkscape:window-x="542"
     inkscape:window-y="56"
     inkscape:window-maximized="0"
     inkscape:current-layer="g4" />
  <g
     id="g4">
    <path
       fill="#FFFFFF"
       d="m63.58,14.88c-0.379-0.478-0.959-0.758-1.574-0.758h-51.902l-1.695-9.496c-0.013-0.075-0.057-0.132-0.081-0.203-0.039-0.132-0.082-0.254-0.148-0.371-0.059-0.11-0.125-0.204-0.203-0.3-0.084-0.101-0.169-0.193-0.273-0.276-0.094-0.077-0.188-0.138-0.296-0.196-0.117-0.067-0.234-0.119-0.363-0.161-0.12-0.039-0.243-0.058-0.371-0.073-0.08-0.009-0.149-0.046-0.229-0.046h-4.45c-1.102,0-1.995,0.879-1.995,1.966 0,1.086 0.893,1.966 1.995,1.966h2.775l6.848,38.343 .027,.161c0,0.002 0,0.002 0,0.004l1.876,10.501c0.167,0.941 0.995,1.627 1.966,1.627h4.346c-1.182,0.072-2.126,1.02-2.126,2.203 0,1.23 1.013,2.229 2.263,2.229s2.264-0.998 2.264-2.229c0-1.184-0.947-2.131-2.128-2.203h28.047c-1.183,0.072-2.128,1.02-2.128,2.203 0,1.23 1.014,2.229 2.264,2.229 1.248,0 2.262-0.998 2.262-2.229 0-1.184-0.943-2.131-2.127-2.203h2.609c1.104,0 1.996-0.88 1.996-1.967 0-1.086-0.893-1.966-1.996-1.966h-33.873l-1.173-6.567h38.552c0.914,0 1.711-0.61 1.935-1.482l7.464-29.014c0.152-0.59 0.019-1.212-0.358-1.692zm-10.592,28.257h-37.697l-4.376-25.082h48.526l-6.453,25.082z"
       id="path6"
       style="fill:#a3a3a3;fill-opacity:1" />
  </g>
</svg>
