<?xml version="1.0" encoding="iso-8859-1"?>
<!-- Generator: Adobe Illustrator 19.1.0, SVG Export Plug-In . SVG Version: 6.00 Build 0)  -->
<svg xmlns="http://www.w3.org/2000/svg" xmlns:xlink="http://www.w3.org/1999/xlink" version="1.1" id="Capa_1" x="0px" y="0px" viewBox="0 0 62.422 62.422" style="enable-background:new 0 0 62.422 62.422;" xml:space="preserve" width="512px" height="512px">
<g>
	<g id="group-16svg">
		<path id="path-1_6_" d="M23.559,47.146c-6.292,0-12.207-2.452-16.656-6.905c-9.184-9.191-9.184-24.145,0-33.336    C11.352,2.452,17.267,0,23.559,0s12.207,2.452,16.657,6.905c9.184,9.191,9.184,24.145,0,33.336    C35.766,44.694,29.851,47.146,23.559,47.146z M23.559,3.003c-5.49,0-10.652,2.139-14.535,6.025c-8.014,8.02-8.014,21.07,0,29.09    c3.883,3.886,9.045,6.026,14.535,6.026c5.491,0,10.653-2.14,14.536-6.026c8.014-8.02,8.014-21.07,0-29.09    C34.213,5.142,29.051,3.003,23.559,3.003z" fill="#FFFFFF"/>
		<path id="path-2_6_" d="M23.559,39.559c-4.266,0-8.278-1.663-11.296-4.682c-6.228-6.233-6.228-16.375,0-22.608    c3.018-3.019,7.03-4.682,11.296-4.682c4.267,0,8.279,1.663,11.296,4.682c6.229,6.233,6.229,16.375,0,22.608    C31.839,37.896,27.826,39.559,23.559,39.559z M23.559,10.59c-3.465,0-6.723,1.35-9.174,3.802c-5.059,5.063-5.059,13.3,0,18.362    c2.451,2.453,5.709,3.803,9.174,3.803c3.466,0,6.724-1.35,9.175-3.803c5.059-5.062,5.059-13.299,0-18.362    C30.284,11.94,27.025,10.59,23.559,10.59z" fill="#FFFFFF"/>
		<path id="path-3_6_" d="M59.407,62.422c-0.768,0-1.535-0.293-2.121-0.879L42.59,46.836c-1.172-1.172-1.172-3.073,0-4.245    c1.172-1.172,3.07-1.173,4.242,0l14.696,14.706c1.172,1.172,1.172,3.073,0,4.246C60.942,62.129,60.174,62.422,59.407,62.422z" fill="#FFFFFF"/>
	</g>
</g>
<g>
</g>
<g>
</g>
<g>
</g>
<g>
</g>
<g>
</g>
<g>
</g>
<g>
</g>
<g>
</g>
<g>
</g>
<g>
</g>
<g>
</g>
<g>
</g>
<g>
</g>
<g>
</g>
<g>
</g>
</svg>
