<?xml version="1.0" encoding="utf-8"?>
<!-- Generator: Adobe Illustrator 16.0.0, SVG Export Plug-In . SVG Version: 6.00 Build 0)  -->
<!DOCTYPE svg PUBLIC "-//W3C//DTD SVG 1.1//EN" "http://www.w3.org/Graphics/SVG/1.1/DTD/svg11.dtd">
<svg version="1.1" id="Capa_1" xmlns="http://www.w3.org/2000/svg" xmlns:xlink="http://www.w3.org/1999/xlink" x="0px" y="0px"
	 width="512px" height="512px" viewBox="0 0 512 512" enable-background="new 0 0 512 512" xml:space="preserve">
<g>
	<path fill="#A3A3A3" d="M293.244,461.008c-11.402,1.942-23.058,2.895-34.616,2.895c-113,0-204.952-91.942-204.952-204.942
		c0-12.831,1.166-25.642,3.526-38.064c0.767-4.07,0.087-8.305-1.933-11.947C45.925,192,40.962,172.768,40.962,153.371
		c0-63.551,51.721-115.263,115.263-115.263c9.878,0,17.862-7.994,17.862-17.862c0-9.888-7.984-17.881-17.862-17.881
		C72.956,2.365,5.199,70.103,5.199,153.371c0,23.282,5.43,46.36,15.764,67.126c-2.03,12.637-3.04,25.545-3.04,38.463
		c0,132.736,107.988,240.725,240.705,240.725c13.56,0,27.235-1.165,40.6-3.438c9.752-1.689,16.299-10.879,14.628-20.61
		C312.224,465.884,302.977,459.337,293.244,461.008z"/>
	<path fill="#A3A3A3" d="M495.604,301.483c2.486-14.064,3.749-28.323,3.749-42.523c0-132.736-107.988-240.724-240.705-240.724
		c-12.51,0-25.079,0.971-37.395,2.894c-9.771,1.516-16.435,10.655-14.919,20.417c1.515,9.752,10.665,16.434,20.406,14.919
		c10.51-1.642,21.232-2.467,31.907-2.467c113,0,204.942,91.942,204.942,204.961c0,13.734-1.38,27.565-4.1,41.124
		c-0.776,3.73-0.311,7.615,1.302,11.073c7.13,15.288,10.762,31.645,10.762,48.642c0,63.523-51.73,115.234-115.253,115.234
		c-9.888,0-17.871,8.004-17.871,17.872c0,9.888,7.983,17.891,17.871,17.891c83.221,0,150.978-67.737,150.978-150.997
		C507.278,339.558,503.354,319.938,495.604,301.483z"/>
	<path fill="#A3A3A3" d="M349.832,299.599c0-10.665-2.078-19.795-6.235-27.138c-4.118-7.343-9.946-13.501-17.309-18.328
		c-7.401-4.759-16.454-8.926-26.963-12.277c-10.394-3.331-22.32-6.439-35.413-9.266c-10.354-2.38-17.911-4.245-22.447-5.517
		c-4.526-1.253-9.042-2.992-13.423-5.187c-4.4-2.224-7.926-4.895-10.441-7.964c-2.574-3.137-3.788-6.741-3.788-11.034
		c0-6.916,3.633-12.685,11.141-17.609c7.372-4.837,17.26-7.295,29.333-7.295c13.2,0,22.524,2.195,28.508,6.731
		c5.866,4.487,10.956,10.762,15.151,18.746c3.322,5.73,6.256,9.615,9.033,12.063c3.438,3.05,8.528,3.71,12.18,3.71
		c5.867,0,10.801-2.069,14.726-6.139c3.885-4.069,5.905-8.722,5.905-13.782c0-5.556-1.612-11.335-4.779-17.173
		c-3.107-5.827-8.158-11.471-14.977-16.793c-6.799-5.323-15.482-9.635-25.778-12.85c-10.335-3.205-22.729-4.827-36.851-4.827
		c-17.727,0-33.345,2.457-46.428,7.294c-13.074,4.818-23.214,11.85-30.129,20.883c-6.906,8.994-10.413,19.465-10.413,31.053
		c0,12.15,3.322,22.476,9.859,30.683c6.556,8.188,15.531,14.744,26.701,19.494c11.219,4.778,25.283,8.975,41.766,12.51
		c12.297,2.564,22.301,5.051,29.799,7.382c7.401,2.292,13.521,5.673,18.183,10.063c4.701,4.371,7.071,10.141,7.071,17.173
		c0,8.975-4.273,16.24-13.055,22.242c-8.683,5.925-20.086,8.878-33.927,8.878c-10.072,0-18.318-1.477-24.516-4.391
		c-6.177-2.933-11.033-6.722-14.481-11.228c-3.39-4.508-6.605-10.18-9.548-16.979c-2.419-5.614-5.381-9.946-8.761-12.841
		c-3.39-2.855-7.625-4.332-12.549-4.332c-6.128,0-11.063,1.826-15.035,5.556c-3.934,3.691-5.925,8.159-5.925,13.365
		c0,8.916,3.331,18.222,9.858,27.643c6.547,9.441,15.182,17.096,25.662,22.748c14.763,7.848,33.752,11.811,56.47,11.811
		c18.921,0,35.55-2.914,49.4-8.664c13.812-5.75,24.457-13.792,31.605-23.932C346.199,323.939,349.832,312.322,349.832,299.599z"/>
</g>
</svg>
