<?xml version="1.0" encoding="iso-8859-1"?>
<!-- Generator: Adobe Illustrator 19.1.0, SVG Export Plug-In . SVG Version: 6.00 Build 0)  -->
<svg xmlns="http://www.w3.org/2000/svg" xmlns:xlink="http://www.w3.org/1999/xlink" version="1.1" id="Capa_1" x="0px" y="0px" viewBox="0 0 487.1 487.1" style="enable-background:new 0 0 487.1 487.1;" xml:space="preserve" width="512px" height="512px">
<g>
	<g>
		<path d="M336.05,251.7h-183.3c-7.5,0-13.5,6-13.5,13.5s6,13.5,13.5,13.5h183.3c7.5,0,13.5-6,13.5-13.5S343.55,251.7,336.05,251.7z    " fill="#68b78c"/>
		<path d="M151.05,203.4h183.3c7.5,0,13.5-6,13.5-13.5s-6-13.5-13.5-13.5h-183.3c-7.5,0-13.5,6-13.5,13.5S143.55,203.4,151.05,203.4    z" fill="#68b78c"/>
		<path d="M336.05,326.9h-183.3c-7.5,0-13.5,6-13.5,13.5s6,13.5,13.5,13.5h183.3c7.5,0,13.5-6,13.5-13.5S343.55,326.9,336.05,326.9z    " fill="#68b78c"/>
		<path d="M433.05,110.4l-111-106.6c-2.5-2.4-5.9-3.8-9.4-3.8h-203.1c-32.9,0-59.7,26.8-59.7,59.7v367.7c0,32.9,26.8,59.7,59.7,59.7    h268c32.9,0,59.7-26.8,59.7-59.7V120.2C437.15,116.5,435.65,113,433.05,110.4z M326.25,45.2l63.9,61.5h-31.3    c-18,0-32.7-14.6-32.7-32.7V45.2H326.25z M410.15,427.4c0,18-14.6,32.7-32.7,32.7h-267.9c-18,0-32.7-14.6-32.7-32.7V59.6    c0-18,14.6-32.7,32.7-32.7h189.6v47c0,32.9,26.8,59.7,59.7,59.7h51.3V427.4z" fill="#68b78c"/>
	</g>
</g>
<g>
</g>
<g>
</g>
<g>
</g>
<g>
</g>
<g>
</g>
<g>
</g>
<g>
</g>
<g>
</g>
<g>
</g>
<g>
</g>
<g>
</g>
<g>
</g>
<g>
</g>
<g>
</g>
<g>
</g>
</svg>
