<?xml version="1.0" encoding="utf-8"?>
<!-- Generator: Adobe Illustrator 16.0.0, SVG Export Plug-In . SVG Version: 6.00 Build 0)  -->
<!DOCTYPE svg PUBLIC "-//W3C//DTD SVG 1.1//EN" "http://www.w3.org/Graphics/SVG/1.1/DTD/svg11.dtd">
<svg version="1.1" id="Capa_1" xmlns="http://www.w3.org/2000/svg" xmlns:xlink="http://www.w3.org/1999/xlink" x="0px" y="0px"
	 width="512px" height="512px" viewBox="0 0 512 512" enable-background="new 0 0 512 512" xml:space="preserve">
<g>
	<path fill="#A3A3A3" d="M485.619,61.492l-33.863-33.883c-29.66-29.64-77.917-29.64-107.596,0l-77.2,77.22
		c-29.659,29.679-29.659,77.916,0,107.595l1.956,1.957l-55.328,55.309l-2.063-2.053c-29.669-29.66-77.907-29.66-107.576,0
		l-77.2,77.199c-29.669,29.66-29.669,77.917,0,107.596l33.873,33.883c29.679,29.641,77.917,29.641,107.586,0l77.21-77.219
		c29.659-29.66,29.659-77.917,0-107.596l-1.957-1.938l55.328-55.328l2.054,2.053c29.659,29.66,77.917,29.66,107.576,0l77.2-77.219
		C515.278,139.525,515.278,91.171,485.619,61.492z M215.632,331.295c13.241,13.231,13.241,34.793,0,48.141l-77.2,77.181
		c-13.231,13.231-34.793,13.231-48.132,0l-33.882-33.863c-13.241-13.231-13.241-34.793,0-48.16l77.2-77.181
		c13.231-13.251,34.803-13.251,48.141,0l2.053,2.054l-33.456,33.456c-8.524,8.524-8.524,21.368,0,29.989
		c4.301,4.301,9.638,6.45,14.975,6.45c5.347,0,10.684-2.149,14.995-6.45l33.466-33.476L215.632,331.295z M455.843,139.428
		l-77.181,77.181c-13.25,13.25-34.793,13.25-48.16,0l-2.053-2.034l33.476-33.496c8.523-8.504,8.523-21.329,0-29.95
		c-8.524-8.64-21.349-8.524-29.97,0l-33.457,33.457l-1.976-1.957c-13.212-13.231-13.212-34.793,0-48.121l77.22-77.2
		c13.231-13.27,34.793-13.27,48.141,0l33.883,33.863C469.19,104.519,469.19,126.062,455.843,139.428z"/>
</g>
</svg>
