<?xml version="1.0" encoding="utf-8"?>
<!DOCTYPE svg PUBLIC "-//W3C//DTD SVG 1.1//EN" "http://www.w3.org/Graphics/SVG/1.1/DTD/svg11.dtd">
<svg xmlns="http://www.w3.org/2000/svg" xmlns:xlink="http://www.w3.org/1999/xlink" width="512px" version="1.1" height="512px" viewBox="0 0 64 64" enable-background="new 0 0 64 64">
  <g>
    <g fill="#1D1D1B">
      <path d="m15.068,10.225h45.851c1.128,0 2.041-0.913 2.041-2.041 0-1.126-0.913-2.04-2.041-2.04h-45.851c-1.128,0-2.04,0.914-2.04,2.04 1.77636e-15,1.128 0.912,2.041 2.04,2.041z" fill="#a3a3a3"/>
      <path d="m60.919,30.03h-45.851c-1.128,0-2.04,0.914-2.04,2.04s0.912,2.041 2.04,2.041h45.851c1.128,0 2.041-0.915 2.041-2.041s-0.913-2.04-2.041-2.04z" fill="#a3a3a3"/>
      <path d="m60.919,53.965h-45.851c-1.128,0-2.04,0.912-2.04,2.04 0,1.126 0.912,2.041 2.04,2.041h45.851c1.128,0 2.041-0.915 2.041-2.041 7.10543e-15-1.128-0.913-2.04-2.041-2.04z" fill="#a3a3a3"/>
      <path d="m4.577,12.468c2.413,0 4.366-1.956 4.366-4.369 0-2.414-1.953-4.366-4.366-4.366-2.415,0-4.368,1.952-4.368,4.366 3.60822e-16,2.413 1.953,4.369 4.368,4.369z" fill="#a3a3a3"/>
      <path d="m4.577,36.329c2.413,0 4.366-1.955 4.366-4.368s-1.953-4.368-4.366-4.368c-2.415,0-4.368,1.955-4.368,4.368s1.953,4.368 4.368,4.368z" fill="#a3a3a3"/>
      <path d="m4.577,51.633c-2.417,0-4.37,1.957-4.37,4.37 0,2.416 1.953,4.37 4.37,4.37 2.413,0 4.368-1.954 4.368-4.37 0-2.413-1.955-4.37-4.368-4.37z" fill="#a3a3a3"/>
    </g>
  </g>
</svg>
