<?xml version="1.0" encoding="utf-8"?>
<!-- Generator: Adobe Illustrator 16.0.0, SVG Export Plug-In . SVG Version: 6.00 Build 0)  -->
<!DOCTYPE svg PUBLIC "-//W3C//DTD SVG 1.1//EN" "http://www.w3.org/Graphics/SVG/1.1/DTD/svg11.dtd">
<svg version="1.1" id="Capa_1" xmlns="http://www.w3.org/2000/svg" xmlns:xlink="http://www.w3.org/1999/xlink" x="0px" y="0px"
	 width="512px" height="512px" viewBox="0 0 512 512" enable-background="new 0 0 512 512" xml:space="preserve">
<path fill="#A3A3A3" d="M382.961,511.616c2.482,0.137,4.945,0.293,7.291,0.293c26.899,0,49.459-9.755,67.092-28.972
	c0.156-0.156,0.449-0.449,0.586-0.586c5.826-6.979,12.512-13.371,19.646-20.214c4.946-4.691,9.893-9.618,14.682-14.72
	c23.889-24.886,23.752-57.649-0.273-81.655l-62.165-62.165c-11.476-12.081-25.453-18.337-40.153-18.337
	c-14.564,0-28.678,6.256-40.466,18.2l-34.367,34.348c-2.307-1.311-4.789-2.464-7.115-3.637c-3.949-2.033-7.722-3.949-10.928-5.962
	c-33.331-21.133-63.612-48.774-92.427-84.285c-13.694-17.173-22.999-31.875-29.548-45.989c8.738-8.161,17.027-16.45,25.032-24.611
	c3.196-3.196,6.402-6.393,9.608-9.599c12.228-12.228,18.62-26.342,18.62-40.896c0-14.564-6.393-28.678-18.62-40.906l-30.858-30.867
	c-3.49-3.49-6.979-7.126-10.488-10.615c-6.832-7.135-14.114-14.417-21.093-20.966C135.522,7.972,121.692,1.863,107.128,1.863
	c-14.407,0-28.385,5.962-40.466,17.613L27.936,58.192C13.099,73.177,4.517,91.377,2.757,112.343
	c-2.756,33.467,7.145,64.628,14.71,85.145c18.337,49.634,45.979,95.789,86.884,145.13c49.8,59.389,109.766,106.384,178.187,139.461
	C308.578,494.433,343.648,509.133,382.961,511.616z M131.583,319.628c-38.286-46.018-63.895-88.8-80.932-134.652
	c-10.341-27.798-14.261-49.351-12.521-69.73c1.017-12.511,5.972-22.999,15.287-32.304l38.14-38.149
	c3.489-3.343,9.021-7.419,15.57-7.419c6.256,0,11.495,3.939,15.141,7.575c6.842,6.402,13.391,13.098,20.379,20.233
	c3.5,3.646,7.125,7.282,10.771,10.918l30.858,30.848c3.772,3.792,8.151,9.472,8.151,15.727c0,6.265-4.516,11.934-8.151,15.717
	c-3.343,3.353-6.549,6.549-9.755,9.901c-9.462,9.618-18.483,18.776-28.238,27.515c-0.283,0.283-0.43,0.43-0.724,0.724
	c-10.634,10.625-8.738,21.249-6.412,28.248c0.137,0.43,0.293,0.723,0.44,1.164c8.151,19.637,19.5,38.276,37.113,60.396
	c31.444,38.727,64.481,68.851,101.027,91.996c4.653,3.069,9.462,5.396,14.114,7.702c3.93,2.053,7.702,3.949,10.908,5.982
	c0.587,0.273,1.017,0.586,1.604,0.86c11.221,5.552,22.285,3.655,31.297-5.514l38.727-38.726c3.479-3.479,9.012-7.722,15.287-7.722
	c6.1,0,11.182,4.086,14.7,7.722l62.438,62.458c10.342,10.322,10.342,20.644-0.43,31.865c-4.223,4.516-8.875,8.875-13.684,13.527
	c-7.272,7.135-14.994,14.407-21.973,22.716c-10.928,11.65-23.732,17.026-40.623,17.026c-1.759,0-3.362,0-5.102-0.137
	c-33.175-2.189-64.179-15.131-87.324-26.195C234.048,419.033,178.148,375.225,131.583,319.628z"/>
</svg>
