<?xml version="1.0" encoding="UTF-8" standalone="no"?>
<!-- Generator: Adobe Illustrator 16.0.0, SVG Export Plug-In . SVG Version: 6.00 Build 0)  -->

<svg
   xmlns:dc="http://purl.org/dc/elements/1.1/"
   xmlns:cc="http://creativecommons.org/ns#"
   xmlns:rdf="http://www.w3.org/1999/02/22-rdf-syntax-ns#"
   xmlns:svg="http://www.w3.org/2000/svg"
   xmlns="http://www.w3.org/2000/svg"
   xmlns:sodipodi="http://sodipodi.sourceforge.net/DTD/sodipodi-0.dtd"
   xmlns:inkscape="http://www.inkscape.org/namespaces/inkscape"
   version="1.1"
   id="Capa_1"
   x="0px"
   y="0px"
   width="512px"
   height="512px"
   viewBox="0 0 382.402 382.402"
   style="enable-background:new 0 0 382.402 382.402;"
   xml:space="preserve"
   inkscape:version="0.91 r13725"
   sodipodi:docname="icon-star-white.svg"><metadata
     id="metadata41"><rdf:RDF><cc:Work
         rdf:about=""><dc:format>image/svg+xml</dc:format><dc:type
           rdf:resource="http://purl.org/dc/dcmitype/StillImage" /><dc:title></dc:title></cc:Work></rdf:RDF></metadata><defs
     id="defs39" /><sodipodi:namedview
     pagecolor="#ffffff"
     bordercolor="#666666"
     borderopacity="1"
     objecttolerance="10"
     gridtolerance="10"
     guidetolerance="10"
     inkscape:pageopacity="0"
     inkscape:pageshadow="2"
     inkscape:window-width="1338"
     inkscape:window-height="802"
     id="namedview37"
     showgrid="false"
     inkscape:zoom="0.4609375"
     inkscape:cx="256"
     inkscape:cy="256"
     inkscape:window-x="0"
     inkscape:window-y="23"
     inkscape:window-maximized="0"
     inkscape:current-layer="Capa_1" /><g
     id="g3"
     style="fill:#ffffff;fill-opacity:1"><path
       d="M381.918,147.437c-1.323-4.074-5.122-6.831-9.401-6.831h-131.33l-40.582-124.9c-1.322-4.072-5.12-6.831-9.402-6.831   s-8.08,2.759-9.403,6.831l-40.581,124.9H9.888c-4.282,0-8.081,2.756-9.404,6.831c-1.322,4.074,0.126,8.535,3.591,11.053   l106.245,77.193l-40.582,124.9c-1.323,4.074,0.125,8.535,3.592,11.054c3.466,2.521,8.157,2.521,11.623,0l106.249-77.192   l106.249,77.192c1.731,1.262,3.773,1.888,5.811,1.888c2.038,0,4.079-0.626,5.812-1.888c3.466-2.519,4.913-6.979,3.591-11.054   l-40.58-124.9l106.242-77.193C381.791,155.972,383.241,151.511,381.918,147.437z M254.647,223.913   c-3.465,2.519-4.913,6.979-3.591,11.054l33.402,102.791l-87.446-63.527c-1.732-1.26-3.774-1.887-5.812-1.887   s-4.079,0.627-5.812,1.887l-87.447,63.527l33.403-102.791c1.323-4.074-0.126-8.535-3.592-11.054l-87.441-63.536H148.4   c4.28,0,8.079-2.756,9.402-6.831L191.201,50.75l33.397,102.796c1.322,4.074,5.121,6.831,9.403,6.831h108.087L254.647,223.913z"
       fill="#a3a3a3"
       id="path5"
       style="fill:#ffffff;fill-opacity:1" /></g><g
     id="g7" /><g
     id="g9" /><g
     id="g11" /><g
     id="g13" /><g
     id="g15" /><g
     id="g17" /><g
     id="g19" /><g
     id="g21" /><g
     id="g23" /><g
     id="g25" /><g
     id="g27" /><g
     id="g29" /><g
     id="g31" /><g
     id="g33" /><g
     id="g35" /></svg>