<?xml version="1.0" encoding="utf-8"?>
<!-- Generator: Adobe Illustrator 16.0.0, SVG Export Plug-In . SVG Version: 6.00 Build 0)  -->
<!DOCTYPE svg PUBLIC "-//W3C//DTD SVG 1.1//EN" "http://www.w3.org/Graphics/SVG/1.1/DTD/svg11.dtd">
<svg version="1.1" id="Capa_1" xmlns="http://www.w3.org/2000/svg" xmlns:xlink="http://www.w3.org/1999/xlink" x="0px" y="0px"
	 width="512px" height="512px" viewBox="0 0 512 512" enable-background="new 0 0 512 512" xml:space="preserve">
<g>
	<path fill="#A3A3A3" d="M238.882,365.375c7.98-7.99,7.98-20.917,0-28.907l-34.654-34.635c-7.98-7.99-20.917-7.99-28.897,0
		c-7.98,7.971-7.99,20.917,0,28.888l34.654,34.654C217.965,373.364,230.901,373.364,238.882,365.375z"/>
	<path fill="#A3A3A3" d="M501.444,315.814c6.087-6.067,9.44-14.151,9.44-22.763c0-8.612-3.354-16.696-9.44-22.764L310.611,79.437
		c-6.086-6.067-14.171-9.422-22.764-9.422c-8.611,0-16.695,3.335-22.782,9.422l-52.876,52.876l-52.876-52.876
		c-6.077-6.067-14.171-9.422-22.773-9.422s-16.696,3.335-22.773,9.422L10.927,182.287c-6.087,6.105-9.441,14.189-9.441,22.782
		c0,8.611,3.354,16.695,9.441,22.782L201.75,418.665c1.705,1.733,3.599,3.204,5.597,4.466H76.4c-5.691,0-10.289,4.599-10.289,10.289
		c0,5.672,4.598,10.289,10.289,10.289h403.826c5.672,0,10.271-4.598,10.271-10.289c0-5.672-4.599-10.289-10.271-10.289h-87.229
		c1.997-1.262,3.882-2.732,5.578-4.466L501.444,315.814z M296.064,94.003l190.832,190.813c2.205,2.205,3.411,5.126,3.411,8.235
		s-1.206,6.03-3.411,8.234l-14.076,14.058L265.574,108.061l14.058-14.058C284.004,89.594,291.674,89.594,296.064,94.003z
		 M238.741,134.875l207.264,207.265l-61.978,61.996c-4.391,4.391-12.041,4.391-16.432,0l-52.876-52.876l35.445-35.446
		c12.55-12.55,12.55-32.977,0-45.526L226.746,146.86L238.741,134.875z M25.465,213.304c-2.195-2.204-3.411-5.106-3.411-8.234
		c0-3.091,1.215-6.012,3.411-8.216L128.334,93.984c2.195-2.205,5.116-3.392,8.226-3.392c3.1,0,6.021,1.187,8.225,3.392
		l190.833,190.832c4.541,4.542,4.541,11.91,0,16.451l-42.644,42.644c-0.038,0.019-0.057,0.019-0.075,0.075
		c-0.038,0.02-0.038,0.038-0.076,0.057l-60.074,60.094c-4.4,4.391-12.051,4.391-16.451,0L25.465,213.304z M241.708,423.131
		c1.988-1.262,3.882-2.732,5.597-4.466l52.867-52.856l52.857,52.856c1.715,1.733,3.6,3.204,5.597,4.466H241.708z"/>
</g>
</svg>
