<?xml version="1.0" encoding="utf-8"?>
<!-- Generator: Adobe Illustrator 16.0.0, SVG Export Plug-In . SVG Version: 6.00 Build 0)  -->
<!DOCTYPE svg PUBLIC "-//W3C//DTD SVG 1.1//EN" "http://www.w3.org/Graphics/SVG/1.1/DTD/svg11.dtd">
<svg version="1.1"
	 id="Capa_1" xmlns:cc="http://creativecommons.org/ns#" xmlns:rdf="http://www.w3.org/1999/02/22-rdf-syntax-ns#" xmlns:inkscape="http://www.inkscape.org/namespaces/inkscape" xmlns:dc="http://purl.org/dc/elements/1.1/" xmlns:sodipodi="http://sodipodi.sourceforge.net/DTD/sodipodi-0.dtd" xmlns:svg="http://www.w3.org/2000/svg" sodipodi:docname="icon-instagram-white.svg" inkscape:version="0.91 r13725"
	 xmlns="http://www.w3.org/2000/svg" xmlns:xlink="http://www.w3.org/1999/xlink" x="0px" y="0px" width="512px" height="512px"
	 viewBox="0 0 512 512" enable-background="new 0 0 512 512" xml:space="preserve">
<sodipodi:namedview  bordercolor="#666666" pagecolor="#ffffff" gridtolerance="10" inkscape:cy="256" guidetolerance="10" objecttolerance="10" showgrid="false" inkscape:cx="256" inkscape:zoom="0.4609375" borderopacity="1" id="namedview37" inkscape:current-layer="Capa_1" inkscape:window-maximized="0" inkscape:window-width="832" inkscape:pageshadow="2" inkscape:window-height="480" inkscape:window-y="23" inkscape:pageopacity="0" inkscape:window-x="0">
	</sodipodi:namedview>
<g id="g7">
</g>
<g id="g9">
</g>
<g id="g11">
</g>
<g id="g13">
</g>
<g id="g15">
</g>
<g id="g17">
</g>
<g id="g19">
</g>
<g id="g21">
</g>
<g id="g23">
</g>
<g id="g25">
</g>
<g id="g27">
</g>
<g id="g29">
</g>
<g id="g31">
</g>
<g id="g33">
</g>
<g id="g35">
</g>
<g>
	<path fill="#FFFFFF" d="M256,47.126c68.354,0,76.451,0.26,103.445,1.492c24.96,1.14,38.515,5.31,47.536,8.815
		c11.949,4.644,20.478,10.192,29.436,19.15c8.958,8.958,14.506,17.486,19.149,29.436c3.506,9.021,7.677,22.576,8.814,47.535
		c1.231,26.995,1.493,35.091,1.493,103.446c0,68.354-0.262,76.451-1.493,103.445c-1.138,24.96-5.309,38.515-8.814,47.536
		c-4.644,11.949-10.191,20.478-19.149,29.436s-17.486,14.506-29.436,19.149c-9.021,3.506-22.576,7.677-47.536,8.814
		c-26.989,1.231-35.086,1.493-103.445,1.493c-68.36,0-76.455-0.262-103.446-1.493c-24.959-1.138-38.515-5.309-47.536-8.814
		c-11.949-4.644-20.478-10.191-29.435-19.149c-8.958-8.958-14.506-17.486-19.15-29.436c-3.505-9.021-7.675-22.576-8.815-47.535
		c-1.231-26.995-1.492-35.092-1.492-103.446c0-68.355,0.26-76.452,1.492-103.446c1.14-24.959,5.31-38.515,8.815-47.536
		c4.644-11.949,10.192-20.478,19.15-29.435c8.958-8.958,17.486-14.506,29.436-19.15c9.021-3.505,22.577-7.675,47.535-8.815
		C179.548,47.387,187.645,47.126,256,47.126 M256,1c-69.525,0-78.243,0.294-105.548,1.541C123.203,3.784,104.594,8.111,88.31,14.44
		c-16.834,6.542-31.111,15.295-45.343,29.527C28.735,58.199,19.982,72.476,13.44,89.31c-6.329,16.284-10.656,34.893-11.899,62.142
		C0.294,178.757,0,187.474,0,257c0,69.525,0.294,78.243,1.541,105.548c1.243,27.249,5.571,45.858,11.899,62.142
		c6.542,16.834,15.295,31.111,29.527,45.344c14.232,14.231,28.509,22.984,45.343,29.527c16.284,6.328,34.893,10.656,62.142,11.898
		C177.757,512.705,186.475,513,256,513s78.243-0.295,105.548-1.541c27.249-1.242,45.858-5.57,62.142-11.898
		c16.835-6.543,31.111-15.296,45.344-29.527c14.231-14.232,22.984-28.509,29.527-45.344c6.328-16.283,10.656-34.893,11.898-62.142
		C511.705,335.243,512,326.525,512,257s-0.295-78.243-1.541-105.548c-1.242-27.249-5.57-45.857-11.898-62.142
		c-6.543-16.834-15.296-31.111-29.527-45.343c-14.232-14.232-28.509-22.985-45.344-29.527
		c-16.283-6.329-34.893-10.656-62.142-11.899C334.243,1.294,325.525,1,256,1L256,1z"/>
	<path fill="#FFFFFF" d="M256,125.541c-72.603,0-131.459,58.856-131.459,131.459c0,72.604,58.856,131.459,131.459,131.459
		c72.604,0,131.459-58.855,131.459-131.459C387.459,184.397,328.604,125.541,256,125.541z M256,342.333
		c-47.128,0-85.333-38.205-85.333-85.333c0-47.128,38.205-85.333,85.333-85.333c47.128,0,85.333,38.205,85.333,85.333
		C341.333,304.128,303.128,342.333,256,342.333z"/>
	<circle fill="#FFFFFF" cx="392.653" cy="120.347" r="30.72"/>
</g>
</svg>
