<?xml version="1.0" encoding="utf-8"?>
<!-- Generator: Adobe Illustrator 19.2.0, SVG Export Plug-In . SVG Version: 6.00 Build 0)  -->
<svg version="1.1" id="Capa_1" xmlns="http://www.w3.org/2000/svg" xmlns:xlink="http://www.w3.org/1999/xlink" x="0px" y="0px"
	 viewBox="0 0 512 512" style="enable-background:new 0 0 512 512;" xml:space="preserve">
<style type="text/css">
	.st0{fill:#FDFEFF;}
</style>
<path class="st0" d="M75.3,5.9C33.8,5.9,0,39.6,0,81.1c0,41.5,33.8,75.3,75.3,75.3s75.3-33.8,75.3-75.3
	C150.5,39.6,116.8,5.9,75.3,5.9z M75.3,120.1c-21.5,0-39-17.5-39-39c0-21.5,17.5-39,39-39c21.5,0,39,17.5,39,39
	S96.7,120.1,75.3,120.1z"/>
<path class="st0" d="M75.3,180.7C33.8,180.7,0,214.5,0,256s33.8,75.3,75.3,75.3s75.3-33.8,75.3-75.3
	C150.5,214.5,116.8,180.7,75.3,180.7z M75.3,295c-21.5,0-39-17.5-39-39s17.5-39,39-39c21.5,0,39,17.5,39,39S96.7,295,75.3,295z"/>
<path class="st0" d="M75.3,355.6C33.8,355.6,0,389.4,0,430.9s33.8,75.3,75.3,75.3s75.3-33.8,75.3-75.3S116.8,355.6,75.3,355.6z
	 M75.3,469.9c-21.5,0-39-17.5-39-39s17.5-39,39-39c21.5,0,39,17.5,39,39S96.7,469.9,75.3,469.9z"/>
<path class="st0" d="M209.8,100.5h283.5c9.6,0,17.3-8.7,17.3-19.4c0-10.7-7.7-19.4-17.3-19.4H209.8c-9.6,0-17.3,8.7-17.3,19.4
	C192.5,91.8,200.3,100.5,209.8,100.5z"/>
<path class="st0" d="M209.8,276.4h283.5c9.6,0,17.3-8.7,17.3-19.4c0-10.7-7.7-19.4-17.3-19.4H209.8c-9.6,0-17.3,8.7-17.3,19.4
	C192.5,267.7,200.3,276.4,209.8,276.4z"/>
<path class="st0" d="M209.8,450.3h283.5c9.6,0,17.3-8.7,17.3-19.4c0-10.7-7.7-19.4-17.3-19.4H209.8c-9.6,0-17.3,8.7-17.3,19.4
	C192.5,441.6,200.3,450.3,209.8,450.3z"/>
</svg>
