<?xml version="1.0" encoding="utf-8"?>
<!-- Generator: Adobe Illustrator 16.0.0, SVG Export Plug-In . SVG Version: 6.00 Build 0)  -->
<!DOCTYPE svg PUBLIC "-//W3C//DTD SVG 1.1//EN" "http://www.w3.org/Graphics/SVG/1.1/DTD/svg11.dtd">
<svg version="1.1" id="Capa_1" xmlns="http://www.w3.org/2000/svg" xmlns:xlink="http://www.w3.org/1999/xlink" x="0px" y="0px"
	 width="512px" height="512px" viewBox="0 0 512 512" enable-background="new 0 0 512 512" xml:space="preserve">
<g>
	<g>
		<g>
			<path fill="#A3A3A3" d="M256.005,1.554c-106.363,0-192.881,86.536-192.881,192.872c0,39.747,9.76,81.115,29.038,122.949
				c15.198,32.949,36.283,66.271,62.704,99.071c44.721,55.506,88.93,90.075,90.801,91.547c3.036,2.365,6.687,3.521,10.337,3.521
				c3.642,0,7.282-1.174,10.347-3.521c1.825-1.472,46.043-36.041,90.783-91.547c26.411-32.8,47.515-66.122,62.694-99.071
				c19.26-41.834,29.057-83.202,29.057-122.949C448.886,88.09,362.35,1.554,256.005,1.554z M331.356,394.71
				c-29.82,37.141-60.013,64.837-75.352,78.08c-15.348-13.243-45.54-40.939-75.379-78.08
				c-38.239-47.589-83.817-120.957-83.817-200.284c0-87.766,71.412-159.178,159.196-159.178
				c87.756,0,159.168,71.412,159.168,159.178C415.173,273.753,369.613,347.121,331.356,394.71z"/>
			<path fill="#A3A3A3" d="M256.005,97.235c-50.383,0-91.369,40.977-91.369,91.342c0,50.383,40.986,91.379,91.369,91.379
				c50.374,0,91.351-40.996,91.351-91.379C347.355,138.212,306.379,97.235,256.005,97.235z M256.005,246.224
				c-31.804,0-57.666-25.853-57.666-57.647c0-31.813,25.862-57.666,57.666-57.666s57.656,25.853,57.656,57.666
				C313.661,220.371,287.809,246.224,256.005,246.224z"/>
		</g>
	</g>
</g>
</svg>
