<?xml version="1.0" encoding="utf-8"?>
<!DOCTYPE svg PUBLIC "-//W3C//DTD SVG 1.1//EN" "http://www.w3.org/Graphics/SVG/1.1/DTD/svg11.dtd">
<svg xmlns="http://www.w3.org/2000/svg" xmlns:xlink="http://www.w3.org/1999/xlink" width="512px" version="1.1" height="512px" viewBox="0 0 64 64" enable-background="new 0 0 64 64">
  <g>
    <path fill="#a3a3a3" d="m31.607,4.195c7.695,0 13.955,6.262 13.955,13.956 0,1.159 0.939,2.098 2.098,2.098s2.098-0.938 2.098-2.098c7.10543e-15-10.008-8.143-18.151-18.151-18.151s-18.15,8.143-18.15,18.151v7.039h-0.154c-3.47,0-6.293,2.823-6.293,6.293v25.842c0,3.471 2.823,6.294 6.293,6.294h36.609c3.471,0 6.294-2.823 6.294-6.294v-25.842c0-3.47-2.823-6.293-6.294-6.293h-32.259v-7.039c0-7.694 6.26-13.956 13.954-13.956zm20.403,27.288v25.842c0,1.158-0.94,2.099-2.098,2.099h-36.609c-1.156,0-2.098-0.94-2.098-2.099v-25.842c0-1.155 0.941-2.097 2.098-2.097h36.609c1.157,0.001 2.098,0.942 2.098,2.097z"/>
  </g>
</svg>
