<?xml version="1.0" encoding="utf-8"?>
<!DOCTYPE svg PUBLIC "-//W3C//DTD SVG 1.1//EN" "http://www.w3.org/Graphics/SVG/1.1/DTD/svg11.dtd">
<svg xmlns="http://www.w3.org/2000/svg" xmlns:xlink="http://www.w3.org/1999/xlink" width="512px" version="1.1" height="512px" viewBox="0 0 64 64" enable-background="new 0 0 64 64">
  <g>
    <path fill="#FFFFFF" d="m63.58,14.88c-0.379-0.478-0.959-0.758-1.574-0.758h-51.902l-1.695-9.496c-0.013-0.075-0.057-0.132-0.081-0.203-0.039-0.132-0.082-0.254-0.148-0.371-0.059-0.11-0.125-0.204-0.203-0.3-0.084-0.101-0.169-0.193-0.273-0.276-0.094-0.077-0.188-0.138-0.296-0.196-0.117-0.067-0.234-0.119-0.363-0.161-0.12-0.039-0.243-0.058-0.371-0.073-0.08-0.009-0.149-0.046-0.229-0.046h-4.45c-1.102,0-1.995,0.879-1.995,1.966 0,1.086 0.893,1.966 1.995,1.966h2.775l6.848,38.343 .027,.161c0,0.002 0,0.002 0,0.004l1.876,10.501c0.167,0.941 0.995,1.627 1.966,1.627h4.346c-1.182,0.072-2.126,1.02-2.126,2.203 0,1.23 1.013,2.229 2.263,2.229s2.264-0.998 2.264-2.229c0-1.184-0.947-2.131-2.128-2.203h28.047c-1.183,0.072-2.128,1.02-2.128,2.203 0,1.23 1.014,2.229 2.264,2.229 1.248,0 2.262-0.998 2.262-2.229 0-1.184-0.943-2.131-2.127-2.203h2.609c1.104,0 1.996-0.88 1.996-1.967 0-1.086-0.893-1.966-1.996-1.966h-33.873l-1.173-6.567h38.552c0.914,0 1.711-0.61 1.935-1.482l7.464-29.014c0.152-0.59 0.019-1.212-0.358-1.692zm-10.592,28.257h-37.697l-4.376-25.082h48.526l-6.453,25.082z"/>
  </g>
</svg>
