<?xml version="1.0" encoding="UTF-8" standalone="no"?>
<!-- Generator: Adobe Illustrator 18.1.1, SVG Export Plug-In . SVG Version: 6.00 Build 0)  -->

<svg
   xmlns:dc="http://purl.org/dc/elements/1.1/"
   xmlns:cc="http://creativecommons.org/ns#"
   xmlns:rdf="http://www.w3.org/1999/02/22-rdf-syntax-ns#"
   xmlns:svg="http://www.w3.org/2000/svg"
   xmlns="http://www.w3.org/2000/svg"
   xmlns:sodipodi="http://sodipodi.sourceforge.net/DTD/sodipodi-0.dtd"
   xmlns:inkscape="http://www.inkscape.org/namespaces/inkscape"
   version="1.1"
   id="Capa_1"
   x="0px"
   y="0px"
   viewBox="0 0 46.195 46.195"
   style="enable-background:new 0 0 46.195 46.195;"
   xml:space="preserve"
   width="512px"
   height="512px"
   inkscape:version="0.91 r13725"
   sodipodi:docname="icon-quote-grey-alpha.svg"><metadata
     id="metadata43"><rdf:RDF><cc:Work
         rdf:about=""><dc:format>image/svg+xml</dc:format><dc:type
           rdf:resource="http://purl.org/dc/dcmitype/StillImage" /><dc:title></dc:title></cc:Work></rdf:RDF></metadata><defs
     id="defs41" /><sodipodi:namedview
     pagecolor="#ffffff"
     bordercolor="#666666"
     borderopacity="1"
     objecttolerance="10"
     gridtolerance="10"
     guidetolerance="10"
     inkscape:pageopacity="0"
     inkscape:pageshadow="2"
     inkscape:window-width="1723"
     inkscape:window-height="781"
     id="namedview39"
     showgrid="false"
     inkscape:zoom="0.4609375"
     inkscape:cx="256"
     inkscape:cy="256"
     inkscape:window-x="20"
     inkscape:window-y="43"
     inkscape:window-maximized="0"
     inkscape:current-layer="Capa_1" /><g
     id="g3"
     style="fill:#474747;fill-opacity:0.09803922"><path
       d="M35.765,8.264c-5.898,0-10.555,4.782-10.555,10.68s4.844,10.68,10.742,10.68   c0.059,0,0.148-0.008,0.207-0.009c-2.332,1.857-5.261,2.976-8.467,2.976c-1.475,0-2.662,1.196-2.662,2.67s0.949,2.67,2.424,2.67   c10.469-0.001,18.741-8.518,18.741-18.987c0-0.002,0-0.004,0-0.007C46.195,13.042,41.661,8.264,35.765,8.264z"
       fill="#62ad84"
       id="path5"
       style="fill:#474747;fill-opacity:0.09803922" /><path
       d="M10.75,8.264c-5.898,0-10.563,4.782-10.563,10.68s4.84,10.68,10.739,10.68   c0.059,0,0.146-0.008,0.205-0.009c-2.332,1.857-5.262,2.976-8.468,2.976C1.188,32.591,0,33.787,0,35.261s0.964,2.67,2.439,2.67   c10.469-0.001,18.756-8.518,18.756-18.987c0-0.002,0-0.004,0-0.007C21.195,13.042,16.646,8.264,10.75,8.264z"
       fill="#62ad84"
       id="path7"
       style="fill:#474747;fill-opacity:0.09803922" /></g><g
     id="g9" /><g
     id="g11" /><g
     id="g13" /><g
     id="g15" /><g
     id="g17" /><g
     id="g19" /><g
     id="g21" /><g
     id="g23" /><g
     id="g25" /><g
     id="g27" /><g
     id="g29" /><g
     id="g31" /><g
     id="g33" /><g
     id="g35" /><g
     id="g37" /></svg>