<?xml version="1.0" encoding="utf-8"?>
<!-- Generator: Adobe Illustrator 16.0.0, SVG Export Plug-In . SVG Version: 6.00 Build 0)  -->
<!DOCTYPE svg PUBLIC "-//W3C//DTD SVG 1.1//EN" "http://www.w3.org/Graphics/SVG/1.1/DTD/svg11.dtd">
<svg version="1.1" id="Livello_1" xmlns="http://www.w3.org/2000/svg" xmlns:xlink="http://www.w3.org/1999/xlink" x="0px" y="0px"
	 width="512px" height="512px" viewBox="0 0 512 512" enable-background="new 0 0 512 512" xml:space="preserve">
<path fill="#A3A3A3" d="M454.621,165.778v-34.395h-45.143L257.255,15.228L105.002,131.383H59.898v34.395L3.51,209.208V512h14.095
	h479.301H511V209.208L454.621,165.778z M454.621,201.309l19.165,14.662l-19.165,14.663V201.309z M257.255,50.181l106.004,81.202
	H151.25L257.255,50.181z M88.098,215.971v-56.389h338.313v56.389v36.099L257.255,381.761L88.098,252.069V215.971z M59.898,201.309
	v29.325l-19.175-14.663L59.898,201.309z M31.699,244.729l147.183,112.229L31.699,469.148V244.729z M59.321,483.811l142.68-109.391
	l55.254,42.284l55.244-42.284l142.67,109.391H59.321z M482.811,469.148l-147.173-112.19l147.173-112.229V469.148z"/>
</svg>
