<?xml version="1.0" encoding="UTF-8" standalone="no"?>
<svg
   xmlns:dc="http://purl.org/dc/elements/1.1/"
   xmlns:cc="http://creativecommons.org/ns#"
   xmlns:rdf="http://www.w3.org/1999/02/22-rdf-syntax-ns#"
   xmlns:svg="http://www.w3.org/2000/svg"
   xmlns="http://www.w3.org/2000/svg"
   xmlns:sodipodi="http://sodipodi.sourceforge.net/DTD/sodipodi-0.dtd"
   xmlns:inkscape="http://www.inkscape.org/namespaces/inkscape"
   width="512px"
   version="1.1"
   height="512px"
   viewBox="0 0 64 64"
   enable-background="new 0 0 64 64"
   id="svg2"
   inkscape:version="0.91 r13725"
   sodipodi:docname="icon-user-white.svg">
  <metadata
     id="metadata16">
    <rdf:RDF>
      <cc:Work
         rdf:about="">
        <dc:format>image/svg+xml</dc:format>
        <dc:type
           rdf:resource="http://purl.org/dc/dcmitype/StillImage" />
        <dc:title></dc:title>
      </cc:Work>
    </rdf:RDF>
  </metadata>
  <defs
     id="defs14" />
  <sodipodi:namedview
     pagecolor="#ffffff"
     bordercolor="#666666"
     borderopacity="1"
     objecttolerance="10"
     gridtolerance="10"
     guidetolerance="10"
     inkscape:pageopacity="0"
     inkscape:pageshadow="2"
     inkscape:window-width="832"
     inkscape:window-height="480"
     id="namedview12"
     showgrid="false"
     inkscape:zoom="0.4609375"
     inkscape:cx="256"
     inkscape:cy="256"
     inkscape:window-x="770"
     inkscape:window-y="114"
     inkscape:window-maximized="0"
     inkscape:current-layer="svg2" />
  <g
     id="g4"
     style="fill:#ffffff;fill-opacity:1">
    <g
       fill="#1D1D1B"
       id="g6"
       style="fill:#ffffff;fill-opacity:1">
      <path
         d="m63.834,61.199c-0.767-3.404-6.562-24.541-31.855-24.541-27.372,0-31.908,24.748-31.951,24.999-0.098,0.581 0.062,1.179 0.444,1.63 0.381,0.452 0.942,0.713 1.532,0.713h59.951c0.016,0 0.027,0 0.041,0 1.105,0 2.004-0.897 2.004-2.006 0-0.282-0.059-0.553-0.166-0.795zm-59.259-1.211c1.742-5.632 7.977-19.317 27.403-19.317s25.662,13.685 27.404,19.317h-54.807z"
         fill="#a3a3a3"
         id="path8"
         style="fill:#ffffff;fill-opacity:1" />
      <path
         d="m31.977,32.895c9.063,0 16.436-7.377 16.436-16.447-0.001-9.069-7.373-16.448-16.436-16.448-9.06,0-16.43,7.379-16.43,16.447 0,9.071 7.37,16.448 16.43,16.448zm0-28.883c6.854-8.88178e-16 12.428,5.578 12.428,12.436 0,6.856-5.573,12.436-12.428,12.436-6.849,0-12.422-5.579-12.422-12.436 0-6.858 5.573-12.436 12.422-12.436z"
         fill="#a3a3a3"
         id="path10"
         style="fill:#ffffff;fill-opacity:1" />
    </g>
  </g>
</svg>
