<?xml version="1.0" encoding="utf-8"?>
<!-- Generator: Adobe Illustrator 16.0.0, SVG Export Plug-In . SVG Version: 6.00 Build 0)  -->
<!DOCTYPE svg PUBLIC "-//W3C//DTD SVG 1.1//EN" "http://www.w3.org/Graphics/SVG/1.1/DTD/svg11.dtd">
<svg version="1.1" id="Livello_1" xmlns="http://www.w3.org/2000/svg" xmlns:xlink="http://www.w3.org/1999/xlink" x="0px" y="0px"
	 width="512px" height="512px" viewBox="0 0 512 512" enable-background="new 0 0 512 512" xml:space="preserve">
<g>
	<path fill="#A3A3A3" d="M447.088,43.362H361.27c-5.93,0-10.727,4.805-10.727,10.727v443.028c0,5.928,4.797,10.726,10.727,10.726
		h85.818c5.92,0,10.727-4.798,10.727-10.726V54.089C457.814,48.167,453.008,43.362,447.088,43.362z M434.926,474.26
		c0,5.313-2.816,9.633-6.294,9.633h-50.344c-3.468,0-6.294-4.319-6.294-9.633V76.589c0-5.313,2.826-9.625,6.294-9.625h50.344
		c3.478,0,6.294,4.312,6.294,9.625V474.26z"/>
	<path fill="#A3A3A3" d="M301.859,186.039H216.05c-5.929,0-10.734,4.797-10.734,10.718v300.361c0,5.928,4.805,10.726,10.734,10.726
		h85.809c5.93,0,10.728-4.798,10.728-10.726V196.756C312.587,190.835,307.789,186.039,301.859,186.039z M287.992,473.372
		c0,4.979-2.628,9.01-5.869,9.01H235.21c-3.234,0-5.861-4.031-5.861-9.01v-252.3c0-4.98,2.626-9.01,5.861-9.01h46.913
		c3.241,0,5.869,4.03,5.869,9.01V473.372z"/>
	<path fill="#A3A3A3" d="M149.977,293.84H64.159c-5.921,0-10.727,4.807-10.727,10.727v193.09c0,5.928,4.805,10.726,10.727,10.726
		h85.818c5.921,0,10.727-4.798,10.727-10.726v-193.09C160.703,298.646,155.897,293.84,149.977,293.84z M138.711,476.704
		c0,4.623-2.847,8.365-6.369,8.365H81.429c-3.515,0-6.362-3.742-6.362-8.365V326.096c0-4.623,2.847-8.365,6.362-8.365h50.914
		c3.522,0,6.369,3.742,6.369,8.365V476.704z"/>
</g>
</svg>
