<?xml version="1.0" encoding="utf-8"?>
<!-- Generator: Adobe Illustrator 16.0.0, SVG Export Plug-In . SVG Version: 6.00 Build 0)  -->
<!DOCTYPE svg PUBLIC "-//W3C//DTD SVG 1.1//EN" "http://www.w3.org/Graphics/SVG/1.1/DTD/svg11.dtd">
<svg version="1.1"
	 id="Livello_1" xmlns:svg="http://www.w3.org/2000/svg" xmlns:dc="http://purl.org/dc/elements/1.1/" xmlns:cc="http://creativecommons.org/ns#" xmlns:rdf="http://www.w3.org/1999/02/22-rdf-syntax-ns#"
	 xmlns="http://www.w3.org/2000/svg" xmlns:xlink="http://www.w3.org/1999/xlink" x="0px" y="0px" width="451.777px" height="100px"
	 viewBox="-57.734 0 451.777 100" enable-background="new -57.734 0 451.777 100" xml:space="preserve">
<g>
	<path fill="#FFFFFF" d="M-12.113,43.291c1.602-1.241,3.17-2.906,4.705-5.001c1.536-2.096,2.304-3.824,2.304-5.192
		c0-1.924-0.362-3.508-1.086-4.748c-0.724-1.239-1.612-1.856-2.666-1.856c-1.885,0-3.498,0.34-4.837,1.027
		c-1.337,0.683-2.457,1.568-3.355,2.663c-0.899,1.087-1.625,2.327-2.173,3.714c-0.549,1.39-1.184,3.11-1.907,5.162
		c-0.726,2.053-1.132,3.738-1.22,5.063c-0.085,1.326-0.129,2.46-0.129,3.398c1.579,0,3.3-0.397,5.166-1.186
		C-15.447,45.543-13.716,44.528-12.113,43.291z"/>
	<path fill="#FFFFFF" d="M-9.315,1.571c-24.718,0-44.754,20.038-44.754,44.756c0,24.717,20.037,44.751,44.754,44.751
		c24.715,0,44.752-20.034,44.752-44.751C35.437,21.608,15.4,1.571-9.315,1.571z M14.339,67.94c-1.88,1.354-3.902,2.682-6.063,3.985
		c-2.163,1.305-4.436,2.466-6.821,3.479c-2.379,1.009-4.851,1.822-7.405,2.428c-2.558,0.608-5.151,0.91-7.774,0.91
		c-4.083,0-7.652-0.753-10.713-2.264c-3.061-1.516-5.61-3.547-7.651-6.109c-2.042-2.559-3.572-5.512-4.592-8.873
		c-1.021-3.356-1.532-6.885-1.532-10.578c0-2.417,0.455-5.295,1.371-8.641c0.913-3.339,1.859-6.308,2.835-8.896
		c0.978-2.589,2.207-5.058,3.686-7.407c1.479-2.353,3.205-4.422,5.183-6.214c1.979-1.791,4.197-3.213,6.653-4.27
		c2.457-1.056,5.185-1.584,8.183-1.584c2.452,0,4.727,0.392,6.825,1.174c2.102,0.789,3.93,1.891,5.481,3.309
		c1.554,1.421,2.768,3.134,3.643,5.144c0.875,2.007,1.313,4.256,1.313,6.742c0,2.649-0.887,5.623-2.661,8.911
		c-1.773,3.291-3.843,6.114-6.208,8.462c-2.365,2.351-5.18,4.447-8.441,6.285c-3.266,1.835-6.801,3.267-10.61,4.291
		c0.655,1.158,1.304,2.12,1.939,2.891c0.636,0.767,1.283,1.363,1.942,1.793c0.658,0.427,1.349,0.729,2.072,0.897
		c0.724,0.172,1.505,0.258,2.336,0.258c2.623,0,5.387-0.513,8.294-1.541c2.905-1.024,5.736-2.308,8.489-3.846
		c2.755-1.538,5.356-3.213,7.802-5.03c2.448-1.818,4.524-3.538,6.231-5.164l8.457,8.591C22.754,61.171,18.666,64.791,14.339,67.94z"
		/>
</g>
<path fill="#FFFFFF" d="M385.942,81.661L366.2,61.915c-1.262-1.259-2.296-0.834-2.296,0.95v4.832c0,0.007,0,0.011,0,0.014v22.732
	c0,1.785,1.354,2.703,3.014,2.039l5.936-2.375l2.652,6.438c0.516,1.255,1.726,2.01,3.001,2.01c0.412,0,0.831-0.079,1.236-0.243
	c1.656-0.685,2.444-2.579,1.764-4.236l-2.626-6.376l6.348-2.537C386.886,84.496,387.204,82.922,385.942,81.661z"/>
<g>
	<polygon fill="#FFFFFF" points="136.594,50.86 150.519,50.86 143.557,34.458 	"/>
	<path fill="#FFFFFF" d="M185.596,33.404h-8.748v14.609h8.748c5.7,0,8.97-2.427,8.97-7.437
		C194.565,35.725,191.296,33.404,185.596,33.404z"/>
	<path fill="#FFFFFF" d="M39.417,12.776c7.37,8.522,11.956,20.396,11.956,33.549c0,13.151-4.586,25.025-11.956,33.548h319.208
		v-20.14c0-0.01,0-0.014,0-0.023v-7.552c0-2.79,1.615-3.457,3.588-1.487l29.199,29.202h2.631V12.776H39.417z M83.208,64.73H61.006
		V27.813h6.223V59.09h15.98V64.73z M118.815,64.73H91.812V27.813h26.372v5.591H98.035v9.966h18.039v5.592H98.035V59.14h20.78V64.73z
		 M156.427,64.73l-3.534-8.332h-18.619l-3.535,8.332h-6.485l16.295-36.917h6.383L163.07,64.73H156.427z M194.038,64.73l-6.752-11.18
		c-0.527,0.052-1.108,0.052-1.69,0.052h-8.748V64.73h-6.224V27.813h14.972c9.44,0,14.874,4.588,14.874,12.606
		c0,5.904-2.742,10.072-7.642,11.971l8.277,12.341H194.038z M243.407,64.73h-6.115l-19.674-26.475V64.73h-6.219V27.813h6.113
		l19.779,26.529V27.813h6.115V64.73z M262.037,64.73h-6.226V27.813h6.226V64.73z M306.392,64.73h-6.116l-19.669-26.475V64.73h-6.224
		V27.813h6.114l19.778,26.529V27.813h6.116V64.73z M335.563,59.405c2.746,0,5.855-0.95,8.492-2.532V46.588h5.434v13.608
		c-3.747,2.847-9.282,4.799-14.345,4.799c-10.916,0-19.406-8.174-19.406-18.722s8.594-18.619,19.776-18.619
		c5.273,0,10.549,2.005,14.19,5.17l-3.536,4.589c-2.85-2.639-6.804-4.221-10.654-4.221c-7.543,0-13.454,5.749-13.454,13.081
		C322.06,53.658,328.025,59.405,335.563,59.405z"/>
</g>
</svg>
