<?xml version="1.0" encoding="utf-8"?>
<!-- Generator: Adobe Illustrator 16.0.0, SVG Export Plug-In . SVG Version: 6.00 Build 0)  -->
<!DOCTYPE svg PUBLIC "-//W3C//DTD SVG 1.1//EN" "http://www.w3.org/Graphics/SVG/1.1/DTD/svg11.dtd">
<svg version="1.1"
	 id="Livello_1" xmlns:svg="http://www.w3.org/2000/svg" xmlns:dc="http://purl.org/dc/elements/1.1/" xmlns:cc="http://creativecommons.org/ns#" xmlns:rdf="http://www.w3.org/1999/02/22-rdf-syntax-ns#"
	 xmlns="http://www.w3.org/2000/svg" xmlns:xlink="http://www.w3.org/1999/xlink" x="0px" y="0px" width="451.777px" height="100px"
	 viewBox="0 0 451.777 100" enable-background="new 0 0 451.777 100" xml:space="preserve">
<g>
	<path fill="#49C4AF" d="M44.622,43.291c1.602-1.241,3.17-2.906,4.705-5.001c1.536-2.096,2.304-3.824,2.304-5.192
		c0-1.924-0.362-3.508-1.086-4.748c-0.724-1.239-1.612-1.856-2.666-1.856c-1.885,0-3.498,0.34-4.837,1.027
		c-1.337,0.683-2.457,1.568-3.355,2.663c-0.899,1.087-1.625,2.327-2.173,3.714c-0.549,1.39-1.184,3.11-1.907,5.162
		c-0.726,2.053-1.132,3.738-1.22,5.063c-0.085,1.326-0.129,2.46-0.129,3.398c1.579,0,3.3-0.397,5.166-1.186
		C41.288,45.543,43.019,44.528,44.622,43.291z"/>
	<path fill="#49C4AF" d="M47.42,1.571c-24.718,0-44.754,20.038-44.754,44.756c0,24.717,20.037,44.751,44.754,44.751
		c24.715,0,44.752-20.034,44.752-44.751C92.172,21.608,72.135,1.571,47.42,1.571z M71.074,67.939
		c-1.88,1.354-3.902,2.683-6.063,3.985c-2.163,1.306-4.436,2.466-6.821,3.479c-2.379,1.009-4.851,1.822-7.405,2.428
		c-2.558,0.607-5.151,0.91-7.774,0.91c-4.083,0-7.652-0.753-10.713-2.264c-3.061-1.517-5.61-3.547-7.651-6.109
		c-2.042-2.559-3.572-5.512-4.592-8.873c-1.021-3.355-1.532-6.885-1.532-10.578c0-2.417,0.455-5.295,1.371-8.641
		c0.913-3.339,1.859-6.308,2.835-8.896c0.978-2.589,2.207-5.058,3.686-7.407c1.479-2.353,3.205-4.422,5.183-6.214
		c1.979-1.791,4.197-3.213,6.653-4.27c2.457-1.056,5.185-1.584,8.183-1.584c2.452,0,4.727,0.392,6.825,1.174
		c2.102,0.789,3.93,1.891,5.481,3.309c1.554,1.421,2.768,3.134,3.643,5.144c0.875,2.007,1.313,4.256,1.313,6.742
		c0,2.649-0.887,5.623-2.661,8.911c-1.773,3.291-3.843,6.114-6.208,8.462c-2.365,2.351-5.18,4.448-8.441,6.286
		c-3.266,1.834-6.801,3.267-10.61,4.291c0.655,1.157,1.304,2.119,1.939,2.891c0.636,0.767,1.283,1.363,1.942,1.793
		c0.658,0.427,1.349,0.729,2.072,0.896c0.724,0.172,1.505,0.258,2.336,0.258c2.623,0,5.387-0.513,8.294-1.541
		c2.905-1.023,5.736-2.308,8.489-3.846c2.755-1.537,5.356-3.213,7.802-5.029c2.448-1.818,4.524-3.539,6.231-5.165l8.457,8.591
		C79.489,61.171,75.401,64.791,71.074,67.939z"/>
</g>
<path fill="#49C4AF" d="M442.676,81.661l-19.74-19.746c-1.264-1.259-2.297-0.834-2.297,0.95v4.832c0,0.007,0,0.011,0,0.014v22.732
	c0,1.785,1.354,2.703,3.014,2.039l5.936-2.375l2.652,6.438c0.516,1.255,1.727,2.01,3.002,2.01c0.412,0,0.83-0.078,1.236-0.242
	c1.654-0.686,2.443-2.58,1.764-4.236l-2.627-6.376l6.348-2.537C443.621,84.496,443.939,82.922,442.676,81.661z"/>
<g>
	<polygon fill="#4BD4C0" points="193.329,50.859 207.254,50.859 200.292,34.458 	"/>
	<path fill="#4BD4C0" d="M242.33,33.404h-8.748v14.609h8.748c5.701,0,8.971-2.427,8.971-7.437
		C251.299,35.725,248.031,33.404,242.33,33.404z"/>
	<path fill="#4BD4C0" d="M96.152,12.776c7.37,8.522,11.956,20.396,11.956,33.549c0,13.151-4.586,25.024-11.956,33.548h319.208
		V59.732c0-0.01,0-0.014,0-0.022v-7.552c0-2.79,1.615-3.457,3.588-1.487l29.199,29.202h2.631V12.776H96.152z M139.943,64.73h-22.202
		V27.813h6.223V59.09h15.98L139.943,64.73L139.943,64.73z M175.55,64.73h-27.003V27.813h26.372v5.591H154.77v9.966h18.039v5.592
		H154.77v10.179h20.78V64.73z M213.162,64.73l-3.534-8.332h-18.619l-3.535,8.332h-6.485l16.295-36.917h6.383l16.138,36.917H213.162z
		 M250.773,64.73l-6.752-11.181c-0.527,0.052-1.109,0.052-1.691,0.052h-8.748V64.73h-6.223V27.813h14.971
		c9.441,0,14.875,4.588,14.875,12.606c0,5.904-2.742,10.072-7.643,11.972l8.277,12.34H250.773L250.773,64.73z M300.143,64.73h-6.115
		l-19.674-26.476V64.73h-6.221V27.813h6.113l19.779,26.529V27.813h6.115V64.73H300.143z M318.771,64.73h-6.227V27.813h6.227V64.73z
		 M363.127,64.73h-6.117l-19.668-26.476V64.73h-6.225V27.813h6.115l19.777,26.529V27.813h6.115V64.73H363.127z M392.297,59.404
		c2.746,0,5.855-0.949,8.492-2.531V46.588h5.434v13.607c-3.746,2.848-9.281,4.8-14.344,4.8c-10.916,0-19.406-8.175-19.406-18.722
		c0-10.548,8.594-18.619,19.775-18.619c5.273,0,10.549,2.005,14.191,5.17l-3.537,4.589c-2.85-2.639-6.805-4.221-10.654-4.221
		c-7.543,0-13.453,5.749-13.453,13.081C378.795,53.658,384.76,59.404,392.297,59.404z"/>
</g>
</svg>
