<?xml version="1.0" encoding="utf-8"?>
<!-- Generator: Adobe Illustrator 16.0.0, SVG Export Plug-In . SVG Version: 6.00 Build 0)  -->
<!DOCTYPE svg PUBLIC "-//W3C//DTD SVG 1.1//EN" "http://www.w3.org/Graphics/SVG/1.1/DTD/svg11.dtd">
<svg version="1.1" id="Livello_1" xmlns="http://www.w3.org/2000/svg" xmlns:xlink="http://www.w3.org/1999/xlink" x="0px" y="0px"
	 width="512px" height="512px" viewBox="0 0 512 512" enable-background="new 0 0 512 512" xml:space="preserve">
<path fill="#A3A3A3" d="M257.188,512.937c-3.951,0-7.623-2.011-9.773-5.308L142.197,346.883c-1.8-2.736-2.384-6.126-1.542-9.26
	l29.227-115.457c1.543-6.242,7.716-10.077,14.193-8.464c6.266,1.59,10.054,7.926,8.441,14.215l-27.941,110.501l92.614,141.504
	l92.613-141.504l-27.939-110.501c-1.544-6.29,2.197-12.625,8.439-14.215c6.383-1.613,12.603,2.222,14.193,8.464l29.226,115.457
	c0.818,3.204,0.234,6.523-1.542,9.26L266.961,507.629C264.81,510.973,261.14,512.937,257.188,512.937L257.188,512.937z"/>
<path fill="#A3A3A3" d="M257.188,491.005c-6.431,0-11.691-5.261-11.691-11.69V292.263c0-6.429,5.261-11.69,11.691-11.69
	c6.43,0,11.69,5.262,11.69,11.69v187.052C268.878,485.767,263.594,491.005,257.188,491.005z"/>
<path fill="#A3A3A3" d="M257.188,303.954c-19.336,0-35.072-15.76-35.072-35.071c0-19.336,15.736-35.073,35.072-35.073
	s35.071,15.737,35.071,35.073C292.259,288.194,276.501,303.954,257.188,303.954z M257.188,257.191
	c-6.431,0-11.691,5.261-11.691,11.691c0,6.429,5.261,11.689,11.691,11.689c6.43,0,11.69-5.261,11.69-11.689
	C268.878,262.452,263.594,257.191,257.188,257.191z"/>
<path fill="#A3A3A3" d="M362.402,222.119H151.971c-5.916,0-10.896-4.396-11.597-10.264L116.268,13.113
	c-0.771-6.406,3.765-12.229,10.218-13.023c6.313-0.795,12.181,3.764,13.023,10.194l22.891,188.477h189.692l22.891-188.477
	c0.771-6.406,6.852-10.919,13.07-10.194c6.336,0.772,10.966,6.593,10.194,13.023l-24.105,198.742
	C373.276,217.724,368.296,222.119,362.402,222.119z"/>
</svg>
