<?xml version="1.0" encoding="utf-8"?>
<!-- Generator: Adobe Illustrator 16.0.0, SVG Export Plug-In . SVG Version: 6.00 Build 0)  -->
<!DOCTYPE svg PUBLIC "-//W3C//DTD SVG 1.1//EN" "http://www.w3.org/Graphics/SVG/1.1/DTD/svg11.dtd">
<svg version="1.1" id="Livello_1" xmlns="http://www.w3.org/2000/svg" xmlns:xlink="http://www.w3.org/1999/xlink" x="0px" y="0px"
	 width="512px" height="512px" viewBox="0 0 512 512" enable-background="new 0 0 512 512" xml:space="preserve">
<path fill="#A3A3A3" d="M258.64,458.064c-109.418,0-198.447-89.029-198.447-198.424c0-109.419,89.029-198.448,198.447-198.448
	c109.397,0,198.425,89.029,198.425,198.448C457.064,369.035,368.037,458.064,258.64,458.064z M258.64,84.311
	c-96.68,0-175.329,78.649-175.329,175.33s78.648,175.306,175.329,175.306c96.682,0,175.307-78.625,175.307-175.306
	S355.321,84.311,258.64,84.311z"/>
<path fill="#A3A3A3" d="M256.699,512c-6.382,0-11.56-5.203-11.56-11.559V14.956c0-6.38,5.178-11.559,11.56-11.559
	c6.38,0,11.56,5.179,11.56,11.559v485.486C268.259,506.797,263.079,512,256.699,512z"/>
<path fill="#A3A3A3" d="M499.441,269.257H13.956c-6.381,0-11.559-5.178-11.559-11.56c0-6.38,5.178-11.559,11.559-11.559h485.485
	c6.357,0,11.559,5.178,11.559,11.559C511,264.079,505.799,269.257,499.441,269.257z"/>
</svg>
