<?xml version="1.0" encoding="utf-8"?>
<!-- Generator: Adobe Illustrator 16.0.0, SVG Export Plug-In . SVG Version: 6.00 Build 0)  -->
<!DOCTYPE svg PUBLIC "-//W3C//DTD SVG 1.1//EN" "http://www.w3.org/Graphics/SVG/1.1/DTD/svg11.dtd">
<svg version="1.1" id="Livello_1" xmlns="http://www.w3.org/2000/svg" xmlns:xlink="http://www.w3.org/1999/xlink" x="0px" y="0px"
	 width="512px" height="512px" viewBox="0 0 512 512" enable-background="new 0 0 512 512" xml:space="preserve">
<path fill="#A3A3A3" d="M256.001,187.397c-38.373,0-69.6-31.227-69.6-69.6s31.227-69.598,69.6-69.598
	c38.325,0,69.599,31.226,69.599,69.598S294.326,187.397,256.001,187.397z M256.001,71.399c-25.612,0-46.399,20.809-46.399,46.398
	c0,25.59,20.787,46.4,46.399,46.4s46.399-20.81,46.399-46.4C302.4,92.208,281.613,71.399,256.001,71.399z"/>
<path fill="#A3A3A3" d="M256.001,326.596c-45.726,0-89.11-14.5-125.534-41.969c-5.127-3.85-6.148-11.112-2.297-16.239
	c3.851-5.127,11.112-6.171,16.216-2.297c32.387,24.383,70.968,37.235,111.591,37.235c102.335,0,185.599-83.24,185.599-185.598
	c0-6.402,5.197-11.6,11.6-11.6c6.357,0,11.602,5.197,11.602,11.6C464.799,232.915,371.119,326.596,256.001,326.596z"/>
<path fill="#A3A3A3" d="M256.001,71.399c-6.403,0-11.6-5.197-11.6-11.6V13.399c0-6.404,5.197-11.6,11.6-11.6
	c6.38,0,11.601,5.196,11.601,11.6v46.399C267.602,66.202,262.381,71.399,256.001,71.399z"/>
<path fill="#A3A3A3" d="M35.603,512.195c-1.555,0-3.132-0.326-4.641-0.975c-5.869-2.551-8.561-9.397-5.984-15.266l162.398-371.197
	c2.528-5.869,9.396-8.56,15.265-5.985c5.87,2.574,8.538,9.419,5.985,15.265L46.229,505.234
	C44.326,509.62,40.034,512.195,35.603,512.195L35.603,512.195z"/>
<path fill="#A3A3A3" d="M476.4,512.195c-4.479,0-8.725-2.575-10.625-6.961l-162.4-371.196c-2.553-5.847,0.092-12.691,5.986-15.266
	c5.914-2.553,12.713,0.116,15.264,5.985l162.4,371.197c2.553,5.871-0.092,12.715-5.986,15.266
	C479.531,511.869,477.932,512.195,476.4,512.195z"/>
</svg>
