<?xml version="1.0" encoding="utf-8"?>
<!-- Generator: Adobe Illustrator 16.0.0, SVG Export Plug-In . SVG Version: 6.00 Build 0)  -->
<!DOCTYPE svg PUBLIC "-//W3C//DTD SVG 1.1//EN" "http://www.w3.org/Graphics/SVG/1.1/DTD/svg11.dtd">
<svg version="1.1" id="Livello_1" xmlns="http://www.w3.org/2000/svg" xmlns:xlink="http://www.w3.org/1999/xlink" x="0px" y="0px"
	 width="512px" height="512px" viewBox="0 0 512 512" enable-background="new 0 0 512 512" xml:space="preserve">
<path fill="#A3A3A3" d="M14.572,492.211c-1.161,0-2.322-0.165-3.459-0.521c-6.254-1.895-9.808-8.481-7.889-14.759L139.686,25.825
	c1.919-6.254,8.482-9.808,14.784-7.89c6.278,1.896,9.808,8.505,7.889,14.784L25.873,483.802
	C24.333,488.918,19.642,492.212,14.572,492.211L14.572,492.211z"/>
<path fill="#A3A3A3" d="M294.224,492.211c-5.094,0-9.784-3.315-11.348-8.434L146.391,32.695c-1.896-6.278,1.634-12.841,7.889-14.783
	c6.302-1.919,12.864,1.658,14.784,7.889l136.486,451.105c1.895,6.256-1.611,12.865-7.889,14.76
	C296.521,492.046,295.36,492.211,294.224,492.211L294.224,492.211z"/>
<path fill="#A3A3A3" d="M409.908,481.29c-17.152,0-33.902-2.796-48.164-9.121c-24.449-10.875-38.048-31.154-38.403-57.167
	c-0.237-19.949,6.917-36.746,21.274-49.918c44.113-40.536,143.641-31.297,147.904-30.894c6.492,0.616,11.278,6.444,10.639,12.937
	c-0.641,6.467-6.303,11.348-12.961,10.661c-0.899-0.12-93.247-8.647-129.566,24.732c-9.334,8.553-13.765,19.119-13.598,32.149
	c0.236,16.892,8.196,28.644,24.354,35.845c34.848,15.471,93.201,3.768,116.466-16.726c4.928-4.313,12.391-3.838,16.726,1.091
	c4.336,4.927,3.838,12.365-1.066,16.726C483.684,468.995,445.967,481.29,409.908,481.29L409.908,481.29z"/>
<path fill="#A3A3A3" d="M248.761,374.632H59.23c-6.539,0-11.845-5.307-11.845-11.846s5.307-11.846,11.845-11.846h189.531
	c6.514,0,11.846,5.307,11.846,11.846S255.299,374.632,248.761,374.632z"/>
<path fill="#A3A3A3" d="M497.519,481.242c-6.538,0-11.846-5.308-11.846-11.845V292.423c-8.102-12.344-18.763-19.854-32.504-22.909
	c-43.781-9.761-101.517,28.927-102.134,29.281c-5.4,3.649-12.769,2.275-16.418-3.174c-3.672-5.426-2.297-12.77,3.151-16.394
	c2.701-1.849,66.715-44.753,120.472-32.86c21.132,4.691,37.763,16.986,49.419,36.555c1.089,1.825,1.682,3.934,1.682,6.065V469.35
	C509.365,475.935,504.058,481.242,497.519,481.242z"/>
</svg>
