<?xml version="1.0" encoding="utf-8"?>
<!-- Generator: Adobe Illustrator 16.0.0, SVG Export Plug-In . SVG Version: 6.00 Build 0)  -->
<!DOCTYPE svg PUBLIC "-//W3C//DTD SVG 1.1//EN" "http://www.w3.org/Graphics/SVG/1.1/DTD/svg11.dtd">
<svg version="1.1" id="Livello_1" xmlns="http://www.w3.org/2000/svg" xmlns:xlink="http://www.w3.org/1999/xlink" x="0px" y="0px"
	 width="512px" height="512px" viewBox="0 0 512 512" enable-background="new 0 0 512 512" xml:space="preserve">
<path fill="#A3A3A3" d="M317.786,451.979H195.792c-6.71,0-12.199-5.488-12.199-12.199V329.986c0-6.709,5.489-12.199,12.199-12.199
	c6.709,0,12.199,5.49,12.199,12.199v97.595h97.594v-97.595c0-6.709,5.489-12.199,12.201-12.199c6.708,0,12.198,5.49,12.198,12.199
	V439.78C329.984,446.491,324.494,451.979,317.786,451.979z"/>
<path fill="#A3A3A3" d="M256.788,512.978c-40.355,0-73.196-32.89-73.196-73.197c0-6.709,5.489-12.199,12.199-12.199
	c6.709,0,12.199,5.49,12.199,12.199c0,26.938,21.862,48.798,48.797,48.798c26.937,0,48.797-21.859,48.797-48.798
	c0-6.709,5.489-12.199,12.201-12.199c6.708,0,12.198,5.49,12.198,12.199C329.984,480.088,297.145,512.978,256.788,512.978z"/>
<path fill="#A3A3A3" d="M134.794,49.4c-3.124,0-6.246-1.195-8.637-3.562l-24.399-24.399c-4.757-4.733-4.757-12.492,0-17.249
	c4.709-4.733,12.492-4.733,17.25,0l24.399,24.398c4.708,4.757,4.708,12.516,0,17.25C141.041,48.205,137.918,49.4,134.794,49.4z"/>
<path fill="#A3A3A3" d="M378.783,49.4c-3.124,0-6.248-1.195-8.639-3.562c-4.758-4.734-4.758-12.492,0-17.25L394.543,4.19
	c4.687-4.733,12.491-4.733,17.25,0c4.686,4.757,4.686,12.516,0,17.249l-24.398,24.399C385.029,48.205,381.904,49.4,378.783,49.4z"/>
<path fill="#A3A3A3" d="M110.395,342.186c-3.122,0-6.246-1.195-8.637-3.563c-4.757-4.733-4.757-12.491,0-17.25l24.399-24.396
	c4.709-4.734,12.492-4.734,17.25,0c4.708,4.757,4.708,12.515,0,17.249l-24.399,24.397
	C116.642,340.99,113.519,342.186,110.395,342.186z"/>
<path fill="#A3A3A3" d="M403.179,342.186c-3.121,0-6.245-1.195-8.636-3.563l-24.398-24.397c-4.758-4.734-4.758-12.492,0-17.249
	c4.684-4.734,12.493-4.734,17.25,0l24.398,24.396c4.686,4.759,4.686,12.517,0,17.25C409.427,340.99,406.304,342.186,403.179,342.186
	z"/>
<path fill="#A3A3A3" d="M61.598,183.594H37.199C30.49,183.594,25,178.08,25,171.395c0-6.709,5.49-12.199,12.199-12.199h24.399
	c6.71,0,12.2,5.464,12.2,12.199C73.798,178.104,68.308,183.594,61.598,183.594z"/>
<path fill="#A3A3A3" d="M476.377,183.594h-24.397c-6.712,0-12.201-5.491-12.201-12.199c0-6.735,5.489-12.199,12.201-12.199h24.397
	c6.712,0,12.198,5.464,12.198,12.199C488.575,178.104,483.089,183.594,476.377,183.594z"/>
<path fill="#A3A3A3" d="M317.786,354.386H195.792c-6.71,0-12.199-5.49-12.199-12.2v-30.597
	c-14.859-7.636-27.937-17.054-38.94-28.009c-29.986-29.986-46.456-69.828-46.456-112.185c0-42.381,16.519-82.199,46.456-112.161
	c29.961-29.938,69.779-46.431,112.136-46.431c42.356,0,82.174,16.493,112.138,46.431c29.985,29.986,46.453,69.805,46.453,112.161
	c0,42.357-16.518,82.175-46.453,112.136c-11.004,11.004-24.059,20.397-38.941,28.034v30.62
	C329.984,348.896,324.494,354.386,317.786,354.386z M207.991,329.986h97.594v-26.01c0-4.732,2.756-9.1,7.102-11.052
	c15.2-7.003,28.302-15.932,38.987-26.643c25.353-25.351,39.308-59.047,39.308-94.887c0-35.842-13.955-69.561-39.308-94.912
	c-25.351-25.35-59.045-39.281-94.886-39.281c-35.842,0-69.537,13.906-94.887,39.257c-25.351,25.325-39.307,59.02-39.307,94.936
	c0,35.84,13.956,69.536,39.307,94.887c10.687,10.687,23.789,19.64,38.989,26.643c4.343,1.952,7.101,6.271,7.101,11.052V329.986z"/>
<path fill="#A3A3A3" d="M187.789,252.593c-3.123,0-6.246-1.219-8.637-3.562c-20.788-20.739-32.158-48.285-32.158-77.636
	c0-29.303,11.418-56.898,32.158-77.661c4.758-4.733,12.492-4.733,17.25,0c4.759,4.781,4.759,12.516,0,17.25
	c-16.152,16.152-25.008,37.551-25.008,60.412c0,22.836,8.856,44.235,25.008,60.387c4.759,4.757,4.759,12.492,0,17.249
	C194.035,251.349,190.912,252.593,187.789,252.593z"/>
<path fill="#A3A3A3" d="M317.786,413.87c-1.808,0-3.612-0.439-5.345-1.244l-121.994-59.485c-6.075-2.953-8.588-10.247-5.612-16.347
	c2.977-6.051,10.346-8.54,16.298-5.587l121.993,59.484c6.075,2.951,8.589,10.246,5.612,16.298
	C326.642,411.333,322.323,413.87,317.786,413.87L317.786,413.87z"/>
<path fill="#A3A3A3" d="M295.923,451.979c-1.805,0-3.563-0.438-5.367-1.243l-100.108-48.799c-6.075-2.95-8.588-10.246-5.612-16.298
	c2.953-6.099,10.346-8.588,16.298-5.587l100.133,48.797c6.027,2.953,8.589,10.273,5.587,16.323
	C304.757,449.443,300.389,451.979,295.923,451.979L295.923,451.979z"/>
</svg>
